<?xml version="1.0" encoding="UTF-8"?>
<svg id="Layer_1" data-name="Layer 1" xmlns="http://www.w3.org/2000/svg" viewBox="0 0 300 300">
  <defs>
    <style>
      .cls-1 {
        fill: #d8b061;
      }

      .cls-1, .cls-2, .cls-3, .cls-4, .cls-5 {
        stroke-width: 0px;
      }

      .cls-2 {
        fill: #93a27d;
      }

      .cls-3 {
        fill: #f15a29;
      }

      .cls-4 {
        fill: #f79a70;
      }

      .cls-5 {
        fill: #696b4a;
      }
    </style>
  </defs>
  <g>
    <path class="cls-2" d="M150.15,248.48c.44-.15.95-.32,1.55-.5,0-.02,0-.03,0-.04l-1.44.47s-.07.05-.11.07Z"/>
    <path class="cls-2" d="M152.08,248.19c2.44-1.05-3.63,1.38-1.92.29-.61.21-1.07.36-1.33.36-1.06.64.84.1,3.25-.65Z"/>
    <path class="cls-2" d="M151.7,247.94l2.91-.95c-2.84.78-3.72.78-5.1,1,1.47-.53,3.87-1.3,3.31-.87l2.03-.98c-2.26.78-4.52,1.53-6.77,2.27,1.33-.21,3.57-.81,3.62-.48Z"/>
    <path class="cls-2" d="M166.22,242.62c-.15-.03-.51.02-1.28.22-.03.09.58-.05,1.28-.22Z"/>
    <path class="cls-2" d="M168.98,242.52c-1.41.36-2.82.71-2.27.27l1.44-.46c.34-.26-.9.05-1.93.29.57.1-2.18,1.38,2.76-.1Z"/>
    <path class="cls-2" d="M160.53,246.14l1-.45-7.1,1.94c.78.31,3.34-1,6.11-1.49Z"/>
    <path class="cls-2" d="M235.07,226.76l.32.1c.23-.02.5-.05.75-.07-.32-.01-.64-.02-1.07-.03Z"/>
    <path class="cls-2" d="M242.39,227.41c-1.69-.3-3.39-.49-5.09-.69-.42.03-.77.05-1.15.07,1.7.1,2.25.25,2.88.34.63.1,1.34.16,3.37.27Z"/>
    <path class="cls-2" d="M235.95,227.04l-.56-.18c-1.11.08-2.05.08-2.95.07-.9,0-1.74-.02-2.65-.04-.91-.04-1.88-.03-3.01,0-1.13.03-2.43.11-3.99.32,4.59-.11,9.36-.24,13.16-.18Z"/>
    <path class="cls-2" d="M270.35,235.87l-.39-.2-.77-.39-1.52-.75-.98-.75c.22.21.48.44.75.68-.25-.16-.5-.31-.76-.47l-.8-.5c-.26-.17-.71-.27-1.06-.42l-2.23-.8-2.23-.8c-.36-.13-.76-.27-1.13-.37l-.92-.26c-3.79-1.14-7.53-1.77-10.48-2.03.19.05.37.09.55.14-.19-.05-.38-.09-.55-.14-.54.04-.93.09-1.23.13-1.62-.41,1-.1,1.66-.2-4.25-.62-7.46-.86-8.81-.56,2.32.17,4.63.45,6.93.8-.39.07-.55.15-.59.22-.48-.02-.95-.03-1.39-.04-1.79-.01-3.19,0-3.81-.12-3.06-.32-5.72-.55-8.15-.71.03,0,.06,0,.09,0-.06,0-.11,0-.17,0-1.96-.13-3.77-.23-5.51-.29.14-.04.29-.08.43-.12.43-.01.9-.03,1.37-.04,1.34-.01,2.8-.03,4.1-.04,1.29.03,2.42.05,3.07.07-1.66-.17-3.33-.36-5.01-.44l-1.75.27c-.72.01-1.07-.02-1.25-.06-.01-.03-.06-.06-.16-.09,0-.03,0-.06.03-.09-.1,0-.2.02-.3.03-.13-.02-.28-.05-.48-.08l-.21.14c-.76.07-1.51.13-2.26.21-.11.04-.13.07-.09.09-2.14-.16-4.21-.33-8.77.21-.03.02-.09.04-.13.05-2.3.17-4.77.45-7.58.92-.61.04-2.47.62-4.25,1.24-.17.04-.33.08-.52.12-1.4.47-2.16.8-2.47,1-.55.23-.91.4-.93.47,1.13.06,3.88-.37,6.96-.8.33-.05.67-.09,1.01-.14-.29.06-.58.12-.87.18l.5-.06c.18-.05.33-.09.46-.13,2.77-.37,5.66-.72,7.74-.81,1.33.13,2.19.18,3.66.29,2.33.16-2.97,1.05-4.31,1.41,2.32.06,5.64-.13,9.58-.27-4.72.42-9.43,1.12-14.07,2.04l.16-.36c-4.05.91-4.89.63-9.34,1.86-.05.01-.09.02-.14.04,0,0,.01,0,.01,0,1.16.12,3.43-.39,5.79-.79-.1.02-.2.04-.3.06-19.49,4.43-37.99,12.31-56.96,18.61l-24.6.2c-1.88-.31-3.73-.62-5.54-.93-.14-.03-.28-.05-.43-.07-3.23-.55-6.36-1.1-9.34-1.59-17.7-3.12-34.98-7.15-51.24-10.2l-.89-.47c-1.82-.24-3.61-.5-4.08-.43-.94-.17-1.88-.33-2.81-.49-2.72-.68-5.03-1.08-6.83-1.08-2.07-.52-.7-.37-1.89-.71-3.22-.4-6.75-.65-10.37-.27-.32,0-.67.02-1.1.05-1.06.14-2.6.27-4.9,1.22l-.03.16c-.55.23-1.08.48-1.6.77-1.91,1.06-3.56,2.73-4.48,4.73-.96,1.96-1.24,4.21-.9,6.28.34,2.08,1.28,3.89,2.32,5.38,2.16,2.94,4.63,4.8,6.44,6.12,2.93,1.1,6.14,2.36,9.57,3.16,1.67.38,3.36.82,5.06,1.18,1.71.31,3.42.61,5.1.82,2,.2,4.08.45,6.2.59,2.12.08,4.25.28,6.34.27,2.09.03,4.11.1,6.01.05,1.9,0,3.67.02,5.25.02,10.22.04,18.75-1.77,26.1-4.16.3-.08.6-.16.89-.24.36-.14.71-.28,1.06-.42.22-.08.45-.15.67-.23,4.27-1.55,8.14-3.31,11.81-5.18.66-.27,1.33-.54,1.99-.82,1.84.2,3.56.33,5.09.38,2.25.64,4.65,1.18,6.84,1.56,2.19.4,4.16.66,5.54.74,3.52.25,7.2.59,10.97.95.31.04.61.09.92.13,8.79,1.24,18.01,2.23,26.59,2.26-.12-.02-.31-.04-.51-.06,5.7.32,11.39.48,16.91.36,10.6-.41,22.15-1.19,30.04-2.82,5.24-1.13,9.91-2.15,14.35-3.27.06-.01.11-.02.16-.03.78-.13,1.61-.3,2.48-.5.02,0,.05,0,.07-.01h0c.88-.21,1.79-.44,2.73-.69-1.01.26-1.9.47-2.72.66l.06-.15c1.07-.29,2.14-.59,3.19-.91.61-.14,1.23-.29,1.85-.46,1.76-.49,3.57-.99,5.27-1.46,3.37-1.05,6.31-1.96,7.47-2.14,1.06-.74.49-.61-.85-.16-1.35.42-3.46,1.19-5.44,1.91,2.06-.78,4.33-1.57,6.6-2.51,1.13-.48,2.28-.96,3.42-1.45,1.14-.48,2.27-.93,3.42-1.47.31-.15.63-.3.94-.45-.51.28-1,.54-1.46.79-1.26.67-2.37,1.17-4.02,1.64-1.02.62-.57.58.85.14,1.11-.5,2.47-1.03,3.95-1.71.73-.34,1.49-.7,2.24-1.1l.28-.15c.13-.07.27-.14.41-.23.28-.17.56-.33.84-.5.57-.32,1.07-.7,1.58-1.04,1.99-1.43,3.31-2.95,4.05-4.03.37-.54.62-.98.73-1.27.09-.2.12-.33.11-.38,0,0,.01-.02.02-.03.39-.61.77-1.18,1.12-1.74.28-.42.57-.86.86-1.33l.08-.19.04-.1s-.06-.04-.08-.05ZM226.16,227.95l-.09.06c-.28-.01-.54-.03-.8-.05.25,0,.55,0,.89,0ZM262.81,244.84s0,0,.01,0c.05-.03.09-.05.14-.09-.05.03-.1.06-.15.1Z"/>
  </g>
  <g>
    <path class="cls-5" d="M116.93,220.76l-.15,37.25c0,1.37.06,2.91,1.05,3.86,1.02.97,2.6.94,4,.85,6.46-.43,12.91-.86,19.37-1.29,2.31-.15,4.92-.46,6.31-2.31,1.05-1.4,1.09-3.28,1.08-5.02-.05-17.89-2.16-62.89-2.21-80.78"/>
    <g>
      <path class="cls-5" d="M118.55,244.35c.3-.46.47-.73.82-1.14.49-1.49.89-4.32,1.59-5,.23.05.97,2.32.85,2.71-.54,4.06-2.05,5.8-2.72,10.25-.12.39.42,1.77.73,3.1,0,0,.11-.4.24-.85.21.92.22,2.09.2,3.31,0,.3,0,.61-.01.92,0,.21,0,.22,0,.34,0,.18.05.36.15.48.14-.21.14-.21.29-.33-.43.33-.42,1.04.1,1.24.24.1.53.1.79.07l.2-.03h.1s.28-.04.28-.04c.37-.03.74-.06,1.08-.1.56.06.95.15,1.35.25,2.53-.35,4.99-.25,8-.9,1.27-.21,2.82-.28,4.48-.34.83-.04,1.68-.07,2.54-.11.86-.05,1.75-.1,2.43-.22.62-.05,1.18-.12,1.64-.21.52-.11.67-.15.94-.27.24-.13.47-.32.63-.56.08-.12.14-.27.19-.39.06-.19.12-.45.16-.72.15-1.09.09-2.73.01-4.13-.09-1.43-.3-2.82-.64-4.13-.22-.87-.24-2.53.21-4.03-1.5-3.27-1.24-9.43-1.19-13.99-.03-1.66.53-2.8.93-3.49-.71-4.36-1.36-9.04-1.55-13.64-.33-5.88-.66-11.75-.34-18.28.03-.9-.22-2.61-.46-3.49l.33-1.19c-.16-3.78-.87-7.26-.64-10.57.34-4.55,1.96-5.04,3.32-5.57.96,4.83,3.49,9.48,2.67,16.78-.32,2.01.29,5.04.56,7.58.37,2.15-.27,4.51.67,6.35-.98,2.72-1.55,9.25-.9,13.94-.11.4-.23-.04-.33.64,1.25,6.59,1.16,14.04,1.69,21.64.37,3.83.08,8.34.59,13.07.09.42-.17,2.48-.41,4.07-.01.6-.09,1.23-.26,1.84-.5,1.06-1.33,2.01-2.35,2.68-.5.33-1.08.62-1.62.81-.52.19-1.02.33-1.51.43-.97.2-1.86.27-2.65.29-.78.01-1.45-.02-2.06-.11-2.85-.2-5.39.16-7.85.05-1.84-.08-4.25.13-6.59.26-.59.03-1.17.05-1.73.08-.28,0-.56.01-.84.02-.3,0-.59,0-.88,0-1.27,0-2.36-.23-3.05-.73-.17-.12-.59-.29-1-.6-.41-.31-.77-.77-.94-1.19-.08-.45-.08-.91-.02-1.36-.1-.81-.65-1.32-.64-2.26.23-5.39.14-12.1,1.67-14.68.1.44.3,2.16.77,1.43Z"/>
      <path class="cls-5" d="M121.48,222.38c.22.22.29-.6.25-1.11-.24.45-.51.72-.72,1.68l.08-1.49c-.53-.79-.17,1.47-.38.58.06-.82.17-1.47.43-1.07-.14.14-.06.49-.11.98.36.08.52-.72.75-1.17l-.05,2.33-.26-.73Z"/>
      <path class="cls-5" d="M120.83,227.58l.06-.49c-.22-.22-.37.25-.52.72.36-2.09.68,0,1.07-1.26-.18-.04-.39,1.25-.61,1.03Z"/>
      <path class="cls-5" d="M119.84,224.85c.47-.89.08-1.82.63-2.03l-.55,2.38-.08-.35Z"/>
      <path class="cls-5" d="M119.96,240.61c.17.71.08.35.01,1.51l.03-1.67-.05.16Z"/>
      <path class="cls-5" d="M129.38,259.62c-.95-.23-1.73-.51-3.23-.48,1.5-.12,2.91.4,3.23.48Z"/>
      <path class="cls-5" d="M144.1,260.19c0,.18.47.13-.14.36-.31-.04.01-.54-.93-.12.37-.06.72-.14,1.07-.23Z"/>
      <path class="cls-5" d="M145.5,260.72c.25,0,.51.01.78-.01-.02-.05-.33-.04-.78.01Z"/>
      <path class="cls-5" d="M121.19,249.43l-.1.1c.02.07.05.16.07.23,0-.1.02-.2.03-.33Z"/>
      <path class="cls-5" d="M120.87,251.7l.4-1.58c-.05-.13-.07-.24-.11-.36-.11,1.05-.43.68-.29,1.94Z"/>
      <path class="cls-5" d="M120.91,249.7l.18-.17c-.31-1.37.39-1.96.23-3.92-.35,1.42-.42,2.91-.4,4.09Z"/>
      <path class="cls-5" d="M120.53,248.1l-.22-.55c.06-.49.24-.45.33-.43l-.07-1.02c-.35-.42-.47,2.74-.53,3.56l.49-1.56Z"/>
      <path class="cls-5" d="M117.46,238.36v.04s0-.03,0-.05h0Z"/>
      <path class="cls-5" d="M116.54,241.32l.63.15c-.06-1.34.39-1.58.29-3.07v-.04c-.65.52-.41,1.92-.93,2.96Z"/>
      <path class="cls-5" d="M120.19,253.55c.03-1.33.05-2.33-.31-2.75l-.19,2.47c.29-.94.27.06.49.28Z"/>
      <path class="cls-5" d="M118.97,255.61l-.02-1.18-.21.52c.09.05.17.26.23.66Z"/>
      <path class="cls-5" d="M118.74,254.95c-.1-.05-.19.12-.22.56l.22-.56Z"/>
      <path class="cls-5" d="M118.26,252.6c-.43.74.08.69-.04,2,.45.1.03-1.33.04-2Z"/>
      <path class="cls-5" d="M118.01,257.98c-.11.11-.22.24-.32.37h.45s-.13-.37-.13-.37Z"/>
      <path class="cls-5" d="M123.13,259.47c-1.23.47.76.37.9.59l-.9-.59Z"/>
      <path class="cls-5" d="M117.04,259.42c.12-.18.25-.35.38-.5l-.23-.14c0-.3-.04-.79.15-1.05-.49-.27-.27,1.05-.29,1.68Z"/>
      <path class="cls-5" d="M120.49,261.48c.28.12.59.22.92.3"/>
      <path class="cls-5" d="M115.49,256.48c-.18-.04-.76,1.83-.58-.3-.06.82-.04,2-.39,1.25,0,.29.02.62.06.73.05.12.11.11.18.09.14-.06.31-.17.43.4-.28-1.04.2-1.5.3-2.16Z"/>
      <path class="cls-5" d="M115.25,260.38c.04.87.39,1.95.84,2.22-.52-.74-.41-1.63-.84-2.22Z"/>
      <path class="cls-5" d="M114.5,261.64c-.04-.49-.03-.98.03-1.46-.11.32-.2.65-.26.99.07.16.15.32.24.47Z"/>
      <line class="cls-5" x1="128.84" y1="261.97" x2="128.77" y2="261.38"/>
      <path class="cls-5" d="M118.55,265.3c-1.14-.26-2.22-.83-3-1.71.63.86,1.52,1.51,2.52,1.91,1.02.15,1.3.03,1.17-.07-.13-.11-.67-.28-1.26-.57.31.18.55.32.57.45Z"/>
      <path class="cls-5" d="M116.01,262.87c-.24-.21-.46-.45-.65-.71-.05.01.07.36.37.79.29.44.79.94,1.31,1.31-.69-.53-1.09-1.22-1.03-1.4Z"/>
      <path class="cls-5" d="M117.05,264.27c.29.22.61.42.93.58-.27-.16-.59-.35-.93-.58Z"/>
      <path class="cls-5" d="M134.55,261.32l-2.16.06c.81.1,1.48.06,2.16-.06Z"/>
      <path class="cls-5" d="M121.11,266.07l.55-.02.16-.46c-1.08.13-.69.38-.72.48Z"/>
      <path class="cls-5" d="M124.45,266.74c.62.24,1.84-.14,2.34-.21-.78-.28-1.62-.19-2.6-.24.98.04.29.26.26.44Z"/>
      <path class="cls-5" d="M127.36,267.14l-2,.1c.42.48,1.16-.01,2-.1Z"/>
      <path class="cls-5" d="M130.56,266.75c.18-.06.03-.18.38-.29-.3-.17-.98-.04-1.48-.06l1.1.36Z"/>
      <path class="cls-5" d="M116.79,257.61c0,.61.02,1.14.08,1.65.05-.85.18-1.6.27-2.43-.13.26-.27.5-.36.78Z"/>
      <path class="cls-5" d="M141.69,184.22c.83,2.54,1.11,7.29,1.33,9.91.06,4.34,1.1,9.69,1.46,14.74l-.18-.04c-.11,3.96.52,9.07.69,13.41l.24-.25c.01-.73-.01-1.69.33-1.14-.07.98-.14,2.3-.32,2.59l.38.74c-.17.63-1,.14-.7,1.86.88,1-.49,3.89.56,3.93-.6.71,0,2.31-.01,3.17l.46-.59c-.2,1.79-.86,3.48-.72,4.34.16,2.19.29,5.2.57,7.58-.54.55-.06-2.5-.6-.95.56,2.27.51,5,.37,7.82-.04.7-.08,1.42-.11,2.13-.03.73-.07,1.41-.12,1.96-.04.53-.16,1.07-.19,1.2-.06.23-.14.47-.27.69.07,0,.24-.12.21.04-.62.03-.52.56-2.03.62.13.17.63.18,1.08.09.41-.07.66-.2.84-.3.19.43.08.43-.13.39-.25-.03-.4-.14-1.17.21.12.02.36.05.37.14-.76.3-1.01.18-1.15.06-.15-.13-.22-.25-.96-.1l.83.19c-.7.08-.83.11-.97.19-.15.07-.28.18-1.21.33.25-.51-.69-.83-1.19-.85-.21.24-2.01.19-1.75.63-2.34-.84-2.88.46-5.06-.34-.9.45.92.41.87.78-2.21.43-.75-.46-1.56-.56-.69.22-3.56.59-4.83.29l-.06.37c-.97-.13-2.24-.17-3.37-.24-.56-.03-1.09-.07-1.52-.13-.09-.02-.25-.03-.27-.05-.03-.02-.05-.05-.07-.07-.04-.05-.07-.11-.08-.17-.11.27-.1.4.04.46.03.01.08.02.12.03.03,0,.26,0,.4,0,.32-.02.66-.03.99-.05.15.13-.12.26-.51.34-.37.09-.97.14-.98.09.07,0,.1.05.17.09.12.03.24.03.42-.07.06.16-.16.2-.43.22-.12,0-.27,0-.35.04-.51-.05-.38-.12-.21-.17.18-.06.39-.15.22-.24-.17.07-.46.08-.69.09-.22.02-.42.05-.36.34-.42-.13-.38-.34-.29-.47.09-.15.23-.3.2-.49.03.32.28.31.45.26.19-.04.31-.1.42.12.17-.18.13-.31.07-.46-.21.05-.47-.09-.58-.29-.12-.18-.16-.34-.4-.21.09-.13.19-.24.29-.33-.12-.01-.24-.04-.36-.09l.09-.11c-.52.26-.72.98-.96,1.56-.19.22-.31-.35-.37-.61.13-.13.25-.25.38-.36.03-.32-.15-.39-.34-.54-.09-.08-.18-.14-.24-.33-.06-.25-.08-.56-.03-1.02.52,1.13.81-1.99,1.2-3.23-.93-1.39-.73.16-1.52-1.02.03-1.33-.2-3.39.1-5-.04,3.84.67-1.85.97,1.23.1-.65-.02-1.18,0-1.84.74-.5.57.97,1.14.1l-.49-.28c.38-.92.94-1.46,1.11-3.26-.22-.22-.52-1.12-.37-1.93.37-.25.51-.38.54-2.05-.93-3.23-1.29,3.22-2.17,3.85-.28,4.62-2.56,4.76-3.08,10.5.3.91.4.59.54,2.3.79,1.19.69-2.52,1.21-3.57.12.53.25,1.06.1,1.53l.56-.54c.22,2.73-.85,1.48-.63,3.87l-.12-.53c.05.44.1.98.15,1.26l.1-.23c.05.63.4.68.35,1.59-.16-.18-.31-.38-.44-.62.15.23.07.41,0,.66-.06.24-.13.56.11.88-.37-.28-.65-.31-.72-.61,0,.72.19,1.43.64,1.92.44.5,1.06.74,1.67.86,1.13.07,2.13-.1,3.28-.17,1.12-.08,2.24-.14,3.35-.17,2.22-.06,4.43-.04,6.62.05-.19-.07-.42-.12-.54-.15.77-.18,1.28,0,1.76.21.82.05,1.64.09,2.46.14,1.78-.19,3.17-.38,5.39-.47.12.26-.01.37-.29.41.8-.12,1.28-.27.46-.47,1.36-.22,2.04-.06,3.1-.39-.74.43-1.53.74-2.31,1,1.07.02.91-.5,2.34-.72,1.09-.51.77-.54.25-.46-.52.06-1.24.05-1.16-.18.27-.05.55-.12.82-.2-.35-.07-.68-.16-1-.27,1.68-.27,2.69-.53,3.51-.97-.36.33-.77.6-1.19.8-.05.4.51.12,1.04-.45.55-.55.92-1.4,1.21-1.64l-.04.21c.44-1.1.26-1.02.13-.83-.15.18-.33.42-.16-.31.39-.81.62-1.65.82-2.48l-.43.41c-.21-1.44.38-4.12.48-6.45.09-1.32-.27-3.06-.38-4.75-.09.32-.18.96-.31.77,0-1-.07-3.18.39-2.42l-.37-1.41c-.02-.51.04-.91.12-1.23l-.18.39-.2-1.7c.09.02.27-.61.32.23.44-1.91-.55-4.27-.41-7.23l.24.88c-.39-1.74.34-1.93-.01-3.82l-.31.44c-.2-1.37.12-3.96.4-3.58-.82-.16.21-.79-.53-1.6l.71-.86c-.24-.88-.39-1.74-.75-1.14.29-1.4.31-2.53-.2-3.3,0,0-.02-.02-.02-.04l-.02-.03h.01c-.07-.3.02-1.66-.3-1.05-.1-3.18.65-1.7.51-4.72l-.55-.1c.05-2.32-.49-4.58-.88-6.31l.45-.24c-.16-1.19-.45.24-.62-1.61.07-.26.21-.5.33-.46-.09-1.81.09-4.21.05-6.94.09.02.19.37.24.55-.07-1.18-.32-3.05-.52-4.42.68-3.17,1.08-7.69.84-11.87-1.18-3.19-2.52-5.28-3.82-5.57-.83.83-1.66,4.14-2.25,8.43Z"/>
    </g>
  </g>
  <g>
    <path class="cls-4" d="M255.44,125.17c.96-7.28.1-14.69-2.34-21.39-1.78-4.56-4.28-8.96-7.41-12.8-3.11-3.85-6.79-7.18-10.75-9.83-3.95-2.66-8.15-4.67-12.28-6.02-2.06-.72-4.13-1.14-6.11-1.57-1.01-.14-1.99-.27-2.95-.4l-.72-.09s.07,0,.07.01h-.05s-.11,0-.11,0c-.14,0-.29,0-.43,0-.64,0-1.33.08-2.02.14-.35.06-.7.11-1.04.17l-.26.04s.09-.08.13-.11c.12-.09.24-.17.35-.27.77-.64,1.42-1.38,2-2.36l.12-.19.1-.18.14-.25.54-1c.33-.68.65-1.36.93-2.05.3-.73.57-1.47.81-2.21.46-1.22.85-2.56,1.16-3.98.04-.15.08-.31.11-.46h0c.33-1.67.55-3.42.6-5.22-.08,1.93-.3,3.63-.61,5.18l-.1-.2c.39-2.3.55-4.6.48-6.9,0-.91-.03-1.83-.1-2.77-.27-3.36-1.03-6.8-2.21-9.89-1.14-3.1-2.72-5.82-4.2-7.93-1.49-2.11-2.9-3.6-3.61-4.38-1.93-1.38-1.2-.56.7,1.25.91.98,2.1,2.27,3.18,3.82,1.1,1.54,2.15,3.3,3.01,5.08-.9-1.85-2.02-3.72-3.37-5.51-1.34-1.8-2.98-3.47-4.71-4.94-3.46-2.99-7.56-5.33-11.71-6.9-.61-.23-1.22-.44-1.82-.64.35.1.68.19,1.01.3.64.23,1.26.45,1.86.66,2.39.86,4.49,1.89,7.03,3.76.94.56,1.26.72,1.09.49-.17-.23-.84-.83-2-1.59-.49-.29-1-.6-1.54-.92-.54-.31-1.13-.57-1.73-.87-.6-.29-1.21-.62-1.85-.89-.65-.26-1.31-.52-1.97-.79l-1-.39-1.03-.32c-.69-.21-1.38-.43-2.06-.64-1.39-.33-2.76-.67-4.06-.89-1.31-.17-2.55-.42-3.68-.48-1.13-.07-2.14-.15-2.98-.16-1.41.03-2.33.08-2.54.17-1.64-.03-3.14,0-4.45,0l-2.12.47-1.05.23-1.04.3-1.79.27c.51-.05,1.09-.11,1.71-.17-3.87.77-7.77,1.94-11.4,3.59-6.35,2.88-11.77,6.83-15.44,10.45.58-.5,1.16-.93,1.68-1.32-.62.47-1.2.91-1.68,1.32-.61.69-1.05,1.22-1.36,1.63-.37.3-.6.49-.7.55-.17.11-.02-.09.28-.43.61-.66,1.85-1.83,2.23-2.34-5.63,4.95-9.11,9.37-10.22,11.41,2.47-3.12,5.18-6.07,8.1-8.8-.17.23-.27.41-.33.54-.07.13-.08.2-.06.24-.57.61-1.1,1.22-1.6,1.79-2.01,2.35-3.46,4.3-4.2,5.09-3.01,3.53-5.45,6.84-7.55,9.96-.27.38-.52.77-.77,1.16-.08.12-.1.15-.13.18l-.09.12-.17.23c-.2.27-.4.53-.6.79-.37.47-.66.86-.91,1.13-.04-.09-.09-.19-.13-.29.04,0,.08,0,.11-.02,0,.01.01.02.02.03.34-.56.79-1.35,1.27-2.11.27-.44.53-.86.77-1.27.34-.53.67-1.04.97-1.51.59-.95,1.13-1.72,1.51-2.27-.89,1.14-1.7,2.33-2.54,3.51-1.05,1.59-1.03,1.42-1.3,1.74-.08.29-.18.62-.29.98-.18.31-.27.35-.31.29,0-.03-.01-.07-.03-.09,0-.07,0-.16,0-.22l-.06.14s0,0,0,0c0-.01-.04-.19-.07-.31-.01.05-.03.09-.05.14-.15-.21-.3-.46-.47-.7-.03,0-.04.01-.05.04-.02-.06-.04-.13-.05-.19-.03-.16-.1-.39-.17-.6-.06-.2-.12-.4-.18-.62l-.02-.07-.11-.21c-.08-.15-.16-.3-.24-.46-.16-.31-.33-.63-.51-.96-.35-.66-.74-1.37-1.19-2.13-.89-1.53-1.99-3.28-3.45-5.35-.05-.05-.11-.11-.18-.18-.65-.97-1.33-1.95-2.08-2.95-1.81-2.46-3.96-5.01-6.68-7.55-.72-.8-3.53-2.95-6.59-4.66-.32-.21-.66-.41-1.03-.61-2.14-1.15-3.62-1.62-4.37-1.87-.11-.03-.2-.06-.28-.08-1.05-.38-1.79-.49-1.86-.49.92.47,2.52,1.35,4.48,2.5,1.91,1.22,4.18,2.74,6.28,4.62.56.47,1.11.97,1.64,1.47-.5-.43-.99-.86-1.51-1.28l.68.6c.33.28.6.5.85.7,3.6,3.41,6.67,7.44,8.63,10.42.55,1,.98,1.83,1.42,2.7.45.86.92,1.74,1.47,2.87.89,1.79.02.76-1.24-.95-.65-.85-1.42-1.85-2.12-2.76-.72-.89-1.37-1.7-1.74-2.17,1.29,2.14,2.97,4.83,4.81,8.05.45.81.92,1.64,1.41,2.5.47.86.96,1.75,1.46,2.66.18.34.38.7.56,1.04-4.11-7.1-8.7-14.17-14.35-19.79l.48.05c-1.25-1.3-2.36-2.21-3.27-3.09-.98-.79-1.78-1.55-2.68-2.22-.91-.65-1.79-1.4-3-2.06-.6-.34-1.21-.76-1.96-1.1-.75-.34-1.56-.74-2.5-1.13-.08-.03-.15-.05-.24-.09,0,0,.02.01.02.01.61.39,1.46.95,2.52,1.5.53.26,1.05.65,1.64.99.57.37,1.2.69,1.78,1.14.89.59,1.78,1.26,2.64,1.98-3.38-2.6-7.11-4.66-11.3-5.95-14.62-4.52-31.66,2.82-39.43,15.99-7.77,13.18-6.35,30.85,2.48,43.35l-1.33,7.2c-1.1-1.02-2.28-2.53-6.72-3.26-2.29-.29-5.5-.25-9.53,1.14-1.98.74-4.2,1.74-6.42,3.34-2.23,1.57-4.56,3.64-6.66,6.43-1.55,2.01-2.78,4.35-3.76,6.77-.59,1.52-1.04,3.09-1.39,4.68-.13.51-.27,1.02-.38,1.55-1.19,5.43-1.19,11.54-.02,17.64.95,3.61,2.46,7.81,4.48,12.17,1.01,2.16,2.21,4.43,3.54,6.63,1.37,2.19,2.84,4.38,4.54,6.43,1.27,1.59,2.66,3.11,4.13,4.53l.59.66,1.24,1.23c1.81,1.46,4.53,3.44,7.72,4.96.53.27,1.07.53,1.63.74.59.23,1.15.49,1.73.69.59.18,1.18.35,1.75.53.29.08.58.17.86.25.29.06.58.11.87.17.58.11,1.14.21,1.7.31.37.07.31.04.41.05h.22c.14.02.28.02.42.03.18,0,.35,0,.52.01.03.18-.06.47-.08.69l-.05.34v.08s-.03.17-.03.17l-.07.81c-.11,1.08-.17,2.15-.22,3.23-.05,1.08-.13,2.15-.13,3.23-.13,4.3.09,8.6.61,12.86.23,2.13.67,4.25,1.08,6.36.27,1.05.54,2.1.82,3.14.25,1.05.67,2.07,1,3.1,1.46,4.09,3.41,8.07,6.09,11.62,2.7,3.53,6.06,6.55,9.82,8.9,3.81,2.32,8.05,3.82,12.32,4.54,8.6,1.43,17.17-.02,24.87-3.1,1.22-.53,2.47-1.01,3.64-1.63l1.79-.9,1.73-1c1.17-.64,2.26-1.42,3.38-2.15,1.09-.76,2.13-1.55,3.17-2.36,4.09-3.29,7.79-6.99,11.08-10.91,3.29-3.93,6.26-8.03,8.99-12.17.67-1.04,1.35-2.08,2.02-3.11l.08-.13.03-.06.07-.12.13-.24.27-.49.59-1.05.31-.56.16-.29c.05-.08.12-.27.14-.11.22.66.49,1.39.83,2.16.26.6.52,1.19.78,1.79.31.72.63,1.43.97,2.13.18.39.38.8.6,1.24.61,1.79,1.52,4.17,3.1,7.05,1.58,2.87,3.88,6.26,7.45,9.65,4.92,4.65,11.48,8.52,19.11,10.01,3.79.77,7.85.8,11.81.06,3.96-.75,7.74-2.43,10.94-4.66,3.22-2.23,5.88-5,8.01-7.93,2.13-2.93,3.73-6.03,4.91-9.09,2.4-6.1,2.94-12.15,2.72-16.81.41-4.22.14-8.69-.4-12.63-.54-3.95-1.35-7.37-2.02-9.69-.31-1.08-.63-2.16-.94-3.25l-.25-.81-.06-.18-.02-.06-.05-.13-.21-.55c-.14-.4-.29-.8-.44-1.2l-.23-.65-.12-.33-.03-.08s.04,0,.05,0l.14.05c.51.19,1.08.33,1.68.45l.39.06c.09.02.18.05.27.07l.28.06.9.09,1.81.17,1.82.02c.61.02,1.22,0,1.82-.06,4.85-.3,9.64-1.57,13.97-3.77l1.62-.83,1.55-.95c1.06-.6,2-1.38,2.99-2.08,1.88-1.53,3.68-3.17,5.21-5.05,3.05-3.66,5.26-7.84,6.61-12.14-.12.35-.33.85-.51,1.27,1.22-3.14,2.07-6.41,2.5-9.71ZM214.96,62.22s.02-.07.03-.11c-.01.04-.02.08-.03.11ZM185.2,18.92s-.03,0-.04,0c-.13-.03-.27-.07-.42-.1.16.04.3.07.46.11ZM121.52,55.42s-.02.04-.03.05c-.05-.16-.1-.3-.14-.44.05.12.11.25.17.39ZM50.76,95.25l-.15.81c-5.49-2.24-11.52-1.39-16.74,1.38,2.22-1.32,4.64-2.31,7.19-2.81,3.18-.64,6.56-.48,9.7.63Z"/>
    <path class="cls-4" d="M46.71,87.2c.09.16.18.31.25.46.53.83.92,1.44,1.08,1.82.75.9.62.54-.02-.56-.66-1.08-1.73-2.95-2.73-5.13-1.18-2.3-.33-.48.6,1.37.95,1.75,1.95,3.55.82,2.04Z"/>
    <path class="cls-4" d="M44.12,82.37c.35.92.64,1.68.9,2.36.55,1.34.97,2.34,1.55,3.56-1.67-2.58-3.56-7.12-2.83-6.02l-.9-1.97-.45-.99-.38-1.02c1.4,4.41,3.44,8.64,6.13,12.48-1.37-2.31-3.42-6.44-2.92-6.36-.84-1.76-1.57-3.58-2.22-5.41.45,1.33.8,2.44,1.13,3.36Z"/>
    <path class="cls-4" d="M45.21,84.42c.42.87.86,1.74,1.35,2.57.06.08.1.14.15.21-.43-.78-.97-1.69-1.48-2.78-.01,0-.02,0-.02,0Z"/>
    <path class="cls-4" d="M40.68,57.03c.1-.4.22-.88.34-1.39-.12.22-.3.88-.62,2.39.05.07.11-.36.28-1Z"/>
    <path class="cls-4" d="M41.23,56.27c.03.31.09.47.3-.2.11-.33.24-.88.45-1.7.27-.81.55-1.93,1.05-3.37-.48,1.28-.85,2.6-1.16,3.43-.24.84-.4,1.18-.39.53.17-.94.49-1.86.74-2.79.07-.65-.48.84-.95,2.51-.08.32-.16.65-.24.97.16-.31.18.27.21.63Z"/>
    <path class="cls-4" d="M42.12,71.79c-.08-.61-.15-1.24-.23-1.88-.04-.64-.05-1.29-.06-1.93-.09-.67-.2-1.34-.23-2.01.02,4.56.73,9.13,2.14,13.52.01-.32-.1-.88-.26-1.61-.16-.74-.48-1.62-.69-2.66-.22-1.04-.54-2.19-.67-3.42Z"/>
    <path class="cls-4" d="M124.63,49.35l.39-.41c.2-.34.45-.75.67-1.12-.32.46-.64.92-1.06,1.53Z"/>
    <path class="cls-4" d="M132.53,39.37c-2.05,2.15-3.97,4.42-5.79,6.75-.39.61-.69,1.14-1.04,1.71,1.69-2.4,2.4-3.09,3.1-3.94.76-.81,1.49-1.81,3.74-4.52Z"/>
    <path class="cls-4" d="M121.79,54.37c.18-.22.39-.56.62-.91l.1-.15.38-.63c.31-.53.65-1.03.96-1.54.63-1.01,1.25-1.98,1.87-2.89l-.69.7c-.71,1.17-1.34,2.21-1.93,3.2-.15.25-.29.49-.44.73l-.21.35-.04.06c-.06.08-.11.14-.15.2-.19.22-.35.32-.47.42-.05-.11-.1-.26-.16-.36-.03-.05-.06-.11-.09-.16-.07-.1-.14-.2-.21-.31.16.37.15.46.23.68.07.19.15.44.24.62Z"/>
    <path class="cls-4" d="M253.45,133.61c.02-.07.05-.13.06-.19-.02.06-.04.13-.06.19Z"/>
  </g>
  <g>
    <path class="cls-3" d="M154.71,79.66c.39-.22.83-.49,1.38-.75,0,0,0,0,0,0-.44.21-.87.44-1.28.69-.04.03-.06.04-.09.07Z"/>
    <path class="cls-3" d="M153.56,80.35c-.88.8.67-.37,2.86-1.41,1.16-.6.24-.17-.69.31-.88.49-1.77.99-1.01.41-.08.04-.17.1-.24.14-.42.27-.72.47-.91.55Z"/>
    <path class="cls-3" d="M156.08,78.91c.89-.44,1.8-.81,2.73-1.15-2.69.9-3.43,1.29-4.67,1.85,1.3-.85,3.58-1.83,3.02-1.45.66-.3,1.31-.65,2-.89-2.22.72-4.34,1.78-6.27,3.15,1.15-.7,3.22-1.75,3.19-1.5Z"/>
    <path class="cls-3" d="M170.58,76.66c-.12-.06-.45-.15-1.2-.3-.05.02.53.14,1.2.3Z"/>
    <path class="cls-3" d="M170.27,76.77c-.16.02-.24.05.1.15.17.05.44.12.86.22.41.13.97.27,1.7.52-.65-.24-1.32-.42-1.73-.57-.42-.12-.6-.19-.27-.19.48.08.94.24,1.41.36.33.03-.43-.24-1.27-.47-.17-.04-.33-.08-.49-.12.17.08-.13.1-.31.11Z"/>
    <path class="cls-3" d="M160.72,77.64c1.04-.25,2.34-.53,3.64-.52.34-.05.67-.11,1.01-.12-2.3.03-4.6.41-6.81,1.14.33.01,1.12-.23,2.15-.5Z"/>
    <path class="cls-3" d="M174.13,118.8l.21.2c.17.1.38.22.57.33-.23-.16-.47-.32-.77-.53Z"/>
    <path class="cls-3" d="M175.77,119.85c-.32-.19-.58-.35-.86-.52,2.4,1.74,1.5,1.23,4.3,3.41-1.09-1.02-2.25-1.98-3.43-2.89Z"/>
    <path class="cls-3" d="M172.35,117.82l-.18-.1-.03-.02s-.07-.05-.1-.08c-.11-.1-.16-.18-.22-.24.06-.02.12-.05.18-.08.08-.04.05-.03.23-.15-.19.08-.23.08-.34.12-.09.03-.22.08-.31.12.11.09.29.2.46.31.4.24.8.48,1.18.71.51.31,1.01.62,1.47.93l-.36-.34c-.6-.35-1.12-.66-1.62-.96-.12-.07-.25-.15-.37-.22Z"/>
    <path class="cls-3" d="M132.04,184.08c.1.04.2.07.27.1-.09-.03-.18-.07-.27-.1Z"/>
    <path class="cls-3" d="M190.24,144.33c.02-.84,0-1.6-.02-2.27-.18-.71-.29-1.43-.52-2.12l-.14-.9c.03.26.06.55.09.86-.4-1.95-1.01-3.91-1.86-5.73-1.48-3.19-3.5-5.9-5.34-7.74-.37-.32-.64-.54-.85-.7-.88-1.08.71.57,1.15.92-2.52-2.82-4.77-4.55-5.8-5.1,1.59,1.24,3.09,2.59,4.48,4.05-.24-.17-.36-.22-.4-.2-.31-.28-.62-.55-.91-.8-1.2-1-2.18-1.73-2.58-2.1-1.8-1.5-3.48-2.72-5.06-3.76-.2-.13-.39-.26-.59-.38-.15-.1-.18-.13-.27-.19-.14-.1-.27-.2-.4-.3-.24-.19-.43-.33-.58-.45.05-.02.1-.04.15-.06,0,.02,0,.04,0,.05,0,0-.01,0-.02,0,.28.17.69.39,1.07.63.22.13.44.26.64.38.27.17.53.33.77.48.48.29.87.56,1.15.75-1.05-.81-2.82-1.92-2.66-1.91l-.5-.14c-.31-.18-.09-.17,0-.17l-.07-.03s0,0,0,0c.03,0,.09-.02.15-.04-.03,0-.04-.02-.07-.03.1-.07.23-.15.34-.23,0-.02-.02-.02-.04-.02.04,0,.08-.02.11-.03.17-.04.43-.13.62-.18h.04s.11-.07.11-.07l.23-.12c.16-.08.32-.17.48-.26.33-.18.69-.38,1.07-.61.77-.45,1.65-1.02,2.68-1.77.02-.02.07-.06.1-.1.48-.33.97-.68,1.47-1.06,1.23-.93,2.51-2.02,3.78-3.4.42-.38,1.57-1.92,2.43-3.55.06-.11.13-.2.19-.32.57-1.09.8-1.83.92-2.21.03-.09.05-.16.06-.21.16-.49.23-.83.22-.87-.48.92-1.66,3.31-3.55,5.46-.24.29-.49.57-.75.85.1-.12.21-.26.35-.43l.3-.35c-.3.37-.62.72-.94,1.07-1.64,1.7-3.52,3.16-4.93,4.1-1.01.55-1.67.91-2.79,1.48-.9.46-.38.01.47-.63.85-.66,2.01-1.57,2.47-1.97-1.07.66-2.42,1.52-4.04,2.46-.81.46-1.68.95-2.59,1.47-.18.1-.37.21-.56.31,3.58-2.11,7.14-4.47,9.96-7.36l-.02.26c1.27-1.3,1.96-2.13,2.65-3.02.66-.91,1.37-1.88,2.13-3.78.01-.04.03-.08.04-.12h0c-.41.62-.99,1.79-1.81,3.02-.29.44-.62.88-.97,1.31,1.28-1.71,2.31-3.59,2.93-5.69,2.21-7.39-1.56-15.96-8.24-19.82-6.68-3.86-15.59-3.06-21.85,1.45l-3.64-.64c.51-.56,1.26-1.16,1.61-3.4.14-1.16.1-2.78-.62-4.8-.74-1.99-2.16-4.43-4.99-6.56-1.89-1.39-4.02-2.23-6.24-2.65-.12-.03-.23-.06-.35-.08-2.74-.58-5.83-.55-8.9.07-1.82.5-3.93,1.28-6.12,2.31-2.19,1.05-4.5,2.42-6.55,4.13-.73.59-1.41,1.24-2.06,1.92-.39.35-.78.72-1.15,1.12-.67.84-1.55,2.09-2.27,3.53-.16.33-.32.65-.46.98,0,0,0,0,0,0,0,0,0,0,0,0-.29.66-.53,1.32-.69,1.98-.19.57-.24,1.18-.35,1.73-.03.19-.02.16-.03.21v.11c0,.07,0,.14-.01.21,0,.09,0,.18,0,.26-.09.02-.24-.03-.35-.04l-.17-.02h-.12s-.41-.05-.41-.05c-1.09-.09-2.18-.13-3.26-.15-2.17-.05-4.34.08-6.49.37-4.27.55-8.58,1.94-12.18,4.64-1.77,1.38-3.28,3.09-4.44,4.99-1.15,1.93-1.89,4.08-2.24,6.24-.69,4.34.09,8.66,1.68,12.53,1.02,2.47,2.45,4.84,4.12,6.88,1.68,2.05,3.56,3.9,5.55,5.54,1.99,1.64,4.08,3.12,6.18,4.48l1.58,1,.52.29.53.29.28.15.15.08s.14.06.06.07c-.33.11-.7.25-1.09.43l-.9.4c-.17.07-.34.16-.5.24-.35.15-.73.34-1.19.56-.9.31-2.09.79-3.54,1.6-1.44.81-3.14,1.98-4.83,3.8-2.32,2.5-4.25,5.83-4.96,9.68-.37,1.91-.37,3.96.02,5.95.4,2,1.26,3.89,2.4,5.5,2.3,3.24,5.56,5.28,8.64,6.44,3.09,1.18,6.14,1.43,8.49,1.3,4.29.37,8.93-.62,11.25-1.32.54-.16,1.09-.33,1.64-.49l.41-.13c.09-.03.11-.04.13-.04l.07-.03.27-.11.61-.23.33-.12c.1-.03.28-.13.19.02-.09.26-.16.54-.22.85l-.03.2s-.02.09-.03.14l-.03.14-.04.46-.08.92c.01.61-.03,1.23.04,1.84.17,2.44.83,4.86,1.96,7.03,1.11,2.18,2.64,4.16,4.54,5.69,1.81,1.48,3.86,2.55,5.98,3.22-.15-.06-.32-.12-.46-.19,1.59.6,3.24,1.02,4.9,1.22,3.68.45,7.41-.01,10.78-1.27,4.62-1.8,8.72-5.23,11.33-9.25,1.33-2,2.32-4.13,2.98-6.22.35-1.04.56-2.09.77-3.09.06-.51.13-1.01.19-1.49l.04-.36s0-.05,0-.07v-.21c0-.31-.05-.63-.07-.96-.03-.17-.05-.33-.08-.49-.01-.08-.03-.18-.04-.23l.13.16c.29.41.72.74,1.16,1.03l.72.41c.33.21.7.32,1.05.48.42.2.86.34,1.29.48.06.02.12.04.18.06.11.04.23.07.35.11.34.11.66.2.96.28.15.04.29.07.45.1.11.02.23.06.33.07h.02c.83.15,1.71.27,2.61.29-.97-.03-1.82-.15-2.6-.3l.08-.04c1.13.19,2.26.25,3.38.21,2.14-.02,4.47-.41,6.48-1.22.39-.16.77-.31,1.14-.47.36-.19.7-.37,1.04-.55.69-.33,1.25-.79,1.8-1.13,1.04-.78,1.81-1.46,2.2-1.84.69-.98.28-.61-.63.36-.98.93-2.66,2.3-4.46,3.16,1.85-.91,3.76-2.35,5.23-4.12,1.49-1.76,2.65-3.84,3.42-5.94.14-.37.25-.73.36-1.09-.16.59-.34,1.12-.52,1.62-.42,1.21-.93,2.27-1.86,3.56-.28.48-.36.64-.24.55.11-.09.42-.43.79-1.01,1.2-1.95,2.43-5.06,2.81-7.72.4-2.43.3-4.37.19-4.62ZM171.07,117.26s-.02,0-.03-.01c.09-.03.16-.05.24-.08-.06.03-.13.05-.21.09ZM150.65,81.74l-.41-.07c1.1-2.78.65-5.81-.77-8.42.67,1.11,1.18,2.32,1.45,3.6.34,1.6.27,3.31-.28,4.89ZM189.71,149.44s0-.05.01-.08c.03-.11.06-.24.09-.38-.04.16-.07.31-.11.46Z"/>
  </g>
  <path class="cls-1" d="M159.99,116.42c-2.93-8.03-1.4-18.17-9.25-21.56-9.97-2.68-20.39,2.67-28.16,9.47-5.53,4.84-10.49,10.8-12.16,17.96-1.99,8.55,1.24,17.9,7.48,24.08,6.24,6.18,15.16,9.29,23.93,9.28,5.58,0,11.57-1.44,15.16-5.7,1.97-2.34,3.03-5.3,3.79-8.26,2.13-8.28,2.13-17.23-.8-25.26Z"/>
</svg>