<?xml version="1.0" encoding="UTF-8"?>
<svg id="Layer_1" data-name="Layer 1" xmlns="http://www.w3.org/2000/svg" viewBox="0 0 300 300">
  <defs>
    <style>
      .cls-1 {
        fill: #7196a2;
      }

      .cls-1, .cls-2, .cls-3, .cls-4 {
        stroke-width: 0px;
      }

      .cls-2 {
        fill: #d8b061;
      }

      .cls-3 {
        fill: #c07c6c;
      }

      .cls-4 {
        fill: #e6968d;
      }
    </style>
  </defs>
  <path class="cls-4" d="M270.99,175.16c-2.56-6.13-10.45-7.51-17.06-8.19-21.16-2.17-42.14-6.16-62.62-11.9-7.6-2.13-15.5-4.72-20.92-10.46s-7.29-15.6-1.97-21.44c4.11-4.51,10.88-5.24,16.98-5.18,6.1.05,12.59.5,17.9-2.52s8.08-11.2,3.54-15.27c-3.22-2.89-9.35-3.41-9.78-7.71-.31-3.09,2.89-5.27,5.73-6.52,7.67-3.36,15.97-5.27,24.33-5.59,4.54-.18,9.24.08,13.46-1.58,4.23-1.66,7.86-6.02,6.88-10.45-2.02-9.09-19.56-9.39-18.68-18.66.41-4.33,5.18-6.85,9.48-7.46,4.3-.61,8.89-.15,12.79-2.06,3.91-1.9,6.34-7.69,3.1-10.58-9.78-4.78-21.42-2.6-31.93.22-26.68,7.16-52.4,17.86-76.28,31.74-9.9,5.75-21.68,12.24-32.08,7.47-3.88-1.78-6.93-4.94-10.04-7.88-8.1-7.66-17.63-14.39-28.59-16.46-10.96-2.06-23.51,1.5-29.63,10.82-3.87,5.9-5.86,14.34-12.68,16.17-4.19,1.12-11.21,2.09-9.35,6,18.62,2.52,36.2,12.11,48.39,26.41,5.8,6.8,10.57,15.32,9.66,24.22-.66,6.5-4.26,12.27-7.8,17.76-21.91,33.94-46.39,69.51-46.84,109.91l.4,7.94c.37,8.47,12.76,13.3,18.76,7.31,6.77-6.74,4.35-21.25,13.44-24.17,6.25-2.01,12.59,3.88,19.12,3.22,8.43-.85,11.82-11.27,12.45-19.72.63-8.45,1.49-18.65,9.06-22.46,7.52-3.79,18.93.61,23.62-6.38,5.11-7.61-5.28-18.19-1.57-26.57,2.81-6.35,12.35-6.81,17.93-2.69s8.26,10.99,10.94,17.4c7.87,18.79,18.09,36.5,28.28,54.14,2.41,4.18,4.95,8.5,8.91,11.26,3.96,2.76,9.78,3.49,13.45.36,8.35-7.11-1.75-24.38,7.35-30.5,9.12-6.13,24.9,8.66,30.82-.59,3.1-4.84-1-10.88-4.43-15.49-3.43-4.61-5.89-12.13-1.07-15.25,1.48-.96,3.32-1.17,5.08-1.25,7.14-.34,14.5.9,21.32-1.23,6.82-2.13,12.86-9.53,10.11-16.13Z"/>
  <g>
    <path class="cls-3" d="M102.02,184.11c-.02-1.47,0-2.88-.29-4.15-.59-3.88-.61-7.75-1.59-11.24l.45-.25c-.28-.37-.5-.74-.79-.81-.07-.2-.14-.4-.22-.59.15-.63,0-1.12-.66-1.44.17-.48.39-.2.56-.49-.26-.67-.41-1.41-.49-2.17.15-.25.23-.6.12-1.28h-.19c0-2.33.67-4.73,1.65-6.16-1.69-1.03-.8-2.86-1.67-4.25-.73-1.71-2.23-3.46-2.21-5.03-.16-2.52-1.68-4.28-3.49-5.22-.05-.05-.08-.11-.13-.16-.11-.02-.21-.03-.31-.05-.07-.03-.14-.07-.21-.1-.17-.07-.35-.13-.52-.19l.22-.33c-.29.03-.43.11-.51.23-1.85-.55-3.7-.43-5.1-.41-.9,2.26-1.96,4.68-1.45,6.12.1.2.22.41.39.58-.06.5-.11,1.01-.16,1.53.97,0,1.79.73,2.44,1.6l-.14.3c.24.12.51.35.73.62.17.3.33.6.45.86.04.79.11,1.57.19,2.35-.1.06-.2.12-.31.19-.79.49-1.15-.62-1.34-.91-2.61,1.72-2.29,6.23-2.22,9.86.04.56,1.03.81,1.07,1.36l-.5.86c.06.56.33,1.38.17,1.67-.63,1.17-.52,2.74-.2,4.32.32,1.58.84,3.15.9,4.46.06,1.77.98,3.35,1.29,5.52.02,1.99,2,4.4,3.98,6.35.38.13.8.22,1.19.32.45.27.91.77,1.36,1.19.35.39,1.07.9,1.36.9.75.16,1.68.42,3.07.07.68-.18,1.39-.59,1.89-1.12.52-.54.83-1.17.98-1.68.29-1.02.22-1.65.22-2.1,0-.38-.02-.75-.03-1.12ZM92.94,170.19s0,0,0,0c.1.23.2.47.3.7l-.09.02c-.07-.24-.13-.48-.21-.71Z"/>
    <path class="cls-3" d="M94.46,139.27c.05.34-.08.88-.45.71l.43.5.14-1.53c-.4.27-.68.75-1.26.71l-.11.66c.37-.62.85-.77,1.27-1.05Z"/>
    <path class="cls-3" d="M93.31,139.66l.05-.31s-.03-.01-.05-.02c0,.1,0,.21-.05.34.02,0,.03,0,.05,0Z"/>
    <path class="cls-3" d="M93.31,139.32c0-.14.02-.25.16-.29-.44-.28-.64.14-.76.67.33.58-.19-.83.6-.38Z"/>
    <path class="cls-3" d="M86.9,150.27v-.03s0,0,0,0c-1.1.34-.68,1.26-1.57,1.96l1.09.09c-.11-.89.65-1.04.49-2.02Z"/>
    <path class="cls-3" d="M83.08,162.68c0,.5-.01.98-.55.6.07.93.78-.01,1.21.55-.5-.45.25-.92.37-1.37-.29,0-1.01,1.15-1.03.22Z"/>
    <path class="cls-3" d="M83.08,162.68c0-.11,0-.22.01-.32-.01.13-.01.23-.01.32Z"/>
    <path class="cls-3" d="M83.65,164.76c-.11.46-.29,1.05.05,1.26-.05-.46.53-.94-.05-1.26Z"/>
    <polygon class="cls-3" points="82.47 164.68 81.73 165.17 81.91 165.4 82.47 164.68"/>
    <path class="cls-3" d="M82.28,168.1c-.14-.54-.24-1.09-.35-1.64-.07.52-.16,1.04-.21,1.56.61.83.8.34.95-.34-.08.19-.19.35-.39.42Z"/>
    <path class="cls-3" d="M82.81,167.11c.12-.45.26-.86.51-.95l-.36-.45c-.18,0-.08.74-.15,1.4Z"/>
    <path class="cls-3" d="M81.61,169.47l.03.24.78-.08c-.22-.45-.65-.18-.81-.16Z"/>
    <path class="cls-3" d="M81.3,171.46c-.03.74-.42.3-.73.34-.38.55.31,1.33.48,1.68.4-.69.23-1.28.25-2.02Z"/>
    <path class="cls-3" d="M80.07,174.13c-.11-.49-.22-.99-.3-1.48-.79.48.08.88.3,1.48Z"/>
    <path class="cls-3" d="M81.01,176.4c.11.11.31-.06.53.16.24-.3-.04-.76-.05-1.14l-.47.98Z"/>
    <path class="cls-3" d="M132.5,79.22c-.25.38.11.56.58.68.52-.28-.73.15-.32-.53-.12,0-.22-.02-.26-.15Z"/>
    <path class="cls-3" d="M132.76,79.36c.09,0,.19.01.3.05,0-.02,0-.03,0-.05l-.28-.05s-.01.03-.02.05Z"/>
    <path class="cls-3" d="M132.73,78.36c.3-.04.77.08.62.41l.45-.36-1.35-.15c.23.35.65.61.6,1.11l.58.11c-.53-.33-.66-.76-.9-1.12Z"/>
    <path class="cls-3" d="M136,79.33c-.02-.11-.07-.23-.21-.36-.02.11.09.23.21.36Z"/>
    <path class="cls-3" d="M136.4,80.61c-.26-.23-.51-.47-.36-.79l.28.1c.09-.19-.14-.4-.32-.59.07.44-.53.8.41,1.28Z"/>
    <path class="cls-3" d="M134.62,81.29l.21-.11-1.33-.9c.07.83.64.28,1.11,1.01Z"/>
    <path class="cls-3" d="M149.44,80.66l.04.16s.11-.06.16-.08c-.06-.03-.12-.05-.2-.08Z"/>
    <path class="cls-3" d="M150.75,81.36l-.87-.74c-.09.06-.16.08-.24.12.62.27.31.7,1.11.62Z"/>
    <path class="cls-3" d="M149.48,80.82c-.91.33-1.11-.74-2.34-.67.8.64,1.68.86,2.4.95l-.06-.28Z"/>
    <path class="cls-3" d="M177.42,100.02c0-.78-.1-1.36-.22-1.87-.3-1.12-.51-1.5-.75-2.08-.52-1.1-1.24-2.06-2.1-2.74,0,.02.01.05.02.07-.8-1.18-1.71-2.24-2.71-3.05-2.11-1.32-4.05-2.98-5.74-3.35-1.16-.11-2.08-.46-2.94-.79,0,0-.02-.01-.03-.02-.1-.12-.22-.24-.34-.34,0,0-.02-.02-.02-.02h0c-.15-.11-.31-.22-.49-.28.19.1.34.21.48.32l-.08.16c-.24-.09-.48-.17-.73-.24-.95-.75-2.21-1.39-2.38-2.08-.71.62.21.84.99,1.16-.84-.27-1.87-.42-2.77-.75-.05-.02-.1-.04-.15-.06.42-.01.78-.23,1.09.3.3-.18.28-.41.06-.7-.93-.14-2.45-1.07-2.7-.51-.15-.16-.28-.33-.39-.53l-.58.41-.16-.18c.03.09.07.18.11.27-1.16-.22-2.34-.71-3.3-.39.06.06.12.12.18.17-.06-.06-.13-.11-.18-.17-.13.14-.22.27-.3.38-.25-.36.24-.28.42-.55-.8-.2-1.4-.31-1.74.17.42.16.85.3,1.27.46-.11.17-.16.3-.19.42-.51.25-.93.46-1.06.32-.97-.55-1.68-1.25-2.32-1.96.03-.04.07-.08.1-.12.52.24,1.28.43,1.56.53l-.83-.85-.38.27c-.14-.06-.19-.15-.21-.25,0-.02,0-.05,0-.08,0-.07.01-.14.02-.19h-.07c-.02-.05-.03-.1-.06-.17l-.07.17h-.44c-.03.06-.02.1-.02.14-.33-.57-.64-1.19-1.5-1.5-.01.02-.03.04-.04.06-.4-.33-.83-.64-1.35-.87-.11-.1-.5.08-.89.32-.03,0-.06-.01-.09-.02-.29.17-.46.33-.55.49-.13.12-.22.23-.24.31.17.59.74,1.09,1.35,1.55l-.16-.02.09.08s.06-.03.09-.04c.49.37,1,.72,1.35,1.09.18.54.3.82.52,1.29.33.74-.7.91-.98,1.03.35.69.91,1.21,1.61,1.63-.88-.12-1.77-.24-2.65-.34l.1-.48c-.78.01-.85-.66-1.72-.61h-.03s0,0,0,0c.14.67.58.76,1.01,1.01-3.73-.41-7.49-.67-11.21-.92l.08.97c.25.6.55,1.16.88,1.69-.74-.3-1.43-.69-2.01-1.23-.87.54-1.83,1.12-2.41,2.06-.29.47-.49,1.04-.48,1.7,0,.34.05.7.15,1.11.11.39.29.8.52,1.24.28.55.68.99,1.09,1.43.34.82.79,1.67,1.37,2.51,1.19.25,2.55.8,3.84,1.29.25.1.49.19.73.28.06.11.12.23.19.34.33.02.76.09,1.18.18.47.17.9.32,1.27.44,1.89,1.26,3.8,2.05,5.63,2.62,1.87.57,3.54.88,5.27,1.21,2.68.6,5.57.49,8.27.17.26.7.75,1.69,1.71,1.91,2.6.79,6.15,2.04,8.41.21.77.84,1.75,1.02,2.31.77.24-.09.35-.18.75-.22.38-.06.88-.09,1.58-.23.69-.14,1.69-.41,2.69-1.16.37-.27.7-.62,1-1,.25-.27.47-.56.65-.88.62-1.08.77-2.13.78-2.88ZM147.55,81.73l-.03.08s0,0,0,0c-.04-.05-.07-.1-.1-.16.04.03.09.06.14.09Z"/>
  </g>
  <g>
    <path class="cls-2" d="M78.87,219.72c-.02-1.47,0-2.88-.29-4.15-.59-3.88-.61-7.75-1.59-11.24l.45-.25c-.28-.37-.5-.74-.79-.81-.07-.2-.14-.4-.22-.59.15-.63,0-1.12-.66-1.44.17-.48.39-.2.56-.49-.26-.67-.41-1.41-.49-2.17.15-.25.23-.6.12-1.28h-.19c0-2.33.67-4.73,1.65-6.16-1.69-1.03-.8-2.86-1.67-4.25-.73-1.71-2.23-3.46-2.21-5.03-.16-2.52-1.68-4.28-3.49-5.22-.05-.05-.08-.11-.13-.16-.11-.02-.21-.03-.31-.05-.07-.03-.14-.07-.21-.1-.17-.07-.35-.13-.52-.19l.22-.33c-.29.03-.43.11-.51.23-.88-.26-1.76-.37-2.59-.41-.57-.45-1.17-.87-1.83-1.23l-1.1-.22c-.04.95-.09,1.89-.13,2.84-.71,1.81-1.3,3.58-.9,4.73.1.2.22.41.39.58-.06.5-.11,1.01-.16,1.53.15,0,.29.03.43.06-.02,1.07-.03,2.13-.03,3.2-.11.24-.25.48-.53.69l.53.04c0,1.02.02,2.05.04,3.07-.86,2.15-.68,5.2-.63,7.79.04.56,1.03.81,1.07,1.36l-.5.86c.06.56.33,1.38.17,1.67-.63,1.17-.52,2.74-.2,4.32.32,1.58.84,3.15.9,4.46.06,1.77.98,3.35,1.29,5.52.02,1.99,2,4.4,3.98,6.35.38.13.8.22,1.19.32.45.27.91.77,1.36,1.19.35.39,1.07.9,1.36.9.75.16,1.68.42,3.07.07.68-.18,1.39-.59,1.89-1.12.52-.54.83-1.17.98-1.68.29-1.02.22-1.65.22-2.1,0-.38-.02-.75-.03-1.12Z"/>
    <path class="cls-2" d="M70.16,174.93c0-.14.02-.25.16-.29-.44-.28-.64.14-.76.67.33.58-.19-.83.6-.38Z"/>
    <path class="cls-2" d="M71.31,174.88c.05.34-.08.88-.45.71l.43.5.14-1.53c-.4.27-.68.75-1.26.71l-.11.66c.37-.62.85-.77,1.27-1.05Z"/>
    <path class="cls-2" d="M70.16,175.27l.05-.31s-.03-.01-.05-.02c0,.1,0,.21-.05.34.02,0,.03,0,.05,0Z"/>
    <path class="cls-2" d="M59.92,198.29c0,.5-.01.98-.55.6.07.93.78-.01,1.21.55-.5-.45.25-.92.37-1.37-.29,0-1.01,1.15-1.03.22Z"/>
    <path class="cls-2" d="M59.92,198.29c0-.11,0-.22.01-.32-.01.13-.01.23-.01.32Z"/>
    <path class="cls-2" d="M60.49,200.37c-.11.46-.29,1.05.05,1.26-.05-.46.53-.94-.05-1.26Z"/>
    <polygon class="cls-2" points="59.31 200.29 58.57 200.79 58.75 201.02 59.31 200.29"/>
    <path class="cls-2" d="M59.13,203.71c-.14-.54-.24-1.09-.35-1.64-.07.52-.16,1.04-.21,1.56.61.83.8.34.95-.34-.08.19-.19.35-.39.42Z"/>
    <path class="cls-2" d="M59.65,202.72c.12-.45.26-.86.51-.95l-.36-.45c-.18,0-.08.74-.15,1.4Z"/>
    <path class="cls-2" d="M58.46,205.09l.03.24.78-.08c-.22-.45-.65-.18-.81-.16Z"/>
    <path class="cls-2" d="M58.15,207.07c-.03.74-.42.3-.73.34-.38.55.31,1.33.48,1.68.4-.69.23-1.28.25-2.02Z"/>
    <path class="cls-2" d="M56.92,209.74c-.11-.49-.22-.99-.3-1.48-.79.48.08.88.3,1.48Z"/>
    <path class="cls-2" d="M57.86,212.02c.11.11.31-.06.53.16.24-.3-.04-.76-.05-1.14l-.47.98Z"/>
    <path class="cls-2" d="M202.52,70.5c-.26-.47-.62-.85-.99-1.23-.32-.71-.73-1.45-1.26-2.17-1.25-.25-2.73-.8-4.04-1.28-.06-.1-.11-.2-.17-.3-.28-.01-.65-.06-1.01-.13-.43-.15-.83-.28-1.16-.36-1.69-1.06-3.38-1.72-5.01-2.18-1.66-.46-3.13-.7-4.66-.95-2.37-.47-4.91-.31-7.28.03-.25-.61-.69-1.47-1.55-1.65-2.3-.64-5.45-1.66-7.4,0-.7-.72-1.56-.86-2.05-.63-.2.08-.3.16-.65.21-.33.06-.77.1-1.38.23-.61.14-1.48.39-2.34,1.07-.32.25-.6.56-.85.9-.21.24-.4.5-.55.79-.53.96-.63,1.89-.62,2.55,0,.69.11,1.19.23,1.64.29.98.48,1.3.71,1.82.48.95,1.13,1.78,1.9,2.36,0-.02-.01-.04-.02-.06.73,1.02,1.55,1.93,2.44,2.62,1.89,1.11,3.62,2.54,5.12,2.82,1.02.07,1.83.36,2.6.63,0,0,.02.01.03.02.09.11.2.2.31.29,0,0,.01.01.02.02h0c.13.1.28.19.44.24-.17-.08-.3-.18-.43-.27l.07-.14c.21.07.43.14.65.2.85.64,1.97,1.17,2.14,1.78.61-.56-.2-.74-.9-1,.79.22,1.75.37,2.59.65-.37.02-.69.22-.97-.24-.26.17-.24.36-.03.61.82.1,2.17.88,2.39.39.14.13.26.28.35.46l.5-.37.14.16c-.03-.09-.08-.16-.12-.24,1.03.17,2.09.58,2.93.27.11-.13.19-.24.26-.34.23.31-.2.25-.35.49.71.16,1.23.24,1.52-.19-.38-.13-.75-.25-1.13-.38.09-.15.14-.27.16-.37.45-.23.81-.42.92-.31.87.46,1.5,1.06,2.09,1.68-.03.04-.06.07-.08.11-.46-.2-1.13-.35-1.38-.43l.75.73.33-.25c.12.05.17.13.19.21,0,.02,0,.04,0,.07,0,.06,0,.13-.02.17h.06s.03.09.05.15l.06-.15.39-.02s.02-.08.01-.11c.31.49.59,1.03,1.35,1.28,0-.02.03-.03.04-.05.36.28.74.54,1.2.73.09.08.44-.08.78-.3.03,0,.05,0,.08.01.25-.15.4-.3.47-.44.11-.11.19-.21.2-.28-.16-.52-.67-.94-1.22-1.33l.14.02-.08-.07s-.06.03-.08.04c-.44-.32-.89-.61-1.21-.93-.17-.47-.28-.71-.48-1.12-.31-.65.6-.82.84-.93-.33-.61-.85-1.05-1.48-1.4.79.09,1.58.17,2.37.24l-.08.42c.69-.03.76.56,1.53.5h.02s0,0,0,0c-.14-.59-.53-.65-.91-.87,3.29.28,6.6.43,9.88.56l-.1-.85c-.23-.52-.51-1.01-.81-1.47.65.25,1.27.58,1.79,1.04.76-.5,1.58-1.03,2.08-1.87.25-.42.41-.92.39-1.51-.01-.6-.19-1.29-.63-2.04ZM186.2,80.85l.02-.07s0,0,0,0c.03.04.06.09.09.13-.03-.02-.08-.05-.12-.07Z"/>
    <path class="cls-2" d="M199.3,83.48c-.26.04-.68-.06-.55-.35l-.39.33,1.19.1c-.21-.31-.58-.52-.55-.96l-.51-.08c.48.28.6.65.82.97Z"/>
    <path class="cls-2" d="M199.26,82.6c-.08,0-.16,0-.27-.04,0,.02,0,.03,0,.04l.24.04s0-.03.02-.04Z"/>
    <path class="cls-2" d="M199.48,82.72c.22-.34-.11-.49-.52-.58-.45.25.64-.15.3.46.11,0,.19.01.23.12Z"/>
    <path class="cls-2" d="M196.03,81.59c.23.2.46.4.34.69l-.25-.08c-.08.18.14.36.31.52-.08-.39.45-.72-.4-1.13Z"/>
    <path class="cls-2" d="M196.42,82.72c.02.09.06.19.18.3.01-.09-.08-.19-.18-.3Z"/>
    <path class="cls-2" d="M197.58,80.95l-.19.1,1.18.76c-.08-.73-.57-.23-1-.86Z"/>
    <path class="cls-2" d="M184.56,81.82l-.04-.14s-.09.05-.14.07c.05.02.1.04.17.06Z"/>
    <path class="cls-2" d="M183.4,81.24l.78.63c.08-.05.14-.08.21-.11-.55-.23-.29-.61-.99-.52Z"/>
    <path class="cls-2" d="M184.53,81.69c.79-.31.99.62,2.07.54-.72-.54-1.5-.72-2.13-.78l.06.24Z"/>
  </g>
  <g>
    <path class="cls-1" d="M48.65,225.08c-.14-1.26-.76-2.7-.44-3.71.4-1.67-.25-3.12-1.23-4.09-.02-.04-.03-.09-.05-.13-.07-.04-.13-.06-.2-.1-.04-.03-.07-.07-.11-.1-.1-.08-.2-.15-.3-.22l.21-.17c-.2-.04-.3-.01-.37.05-.52-.35-1.07-.59-1.61-.78-.28-.41-.59-.8-.95-1.16l-.67-.36c-.22.61-.43,1.22-.65,1.82-.82,1.04-1.56,2.07-1.52,2.9.01.16.07.31.14.46-.13.31-.27.63-.4.96.1.03.18.08.27.13-.23.69-.44,1.38-.66,2.07-.12.13-.26.26-.48.35l.33.13c-.2.68-.4,1.35-.59,2.03-.97,1.23-1.47,3.23-1.95,4.91-.09.37.51.73.43,1.1l-.5.46c-.07.37-.06.96-.22,1.12-1.32,1.29-.86,4.14-1.28,5.85-.31,1.17-.03,2.37-.25,3.84-.38,1.3.43,3.26,1.33,4.92.22.16.47.3.71.44.24.26.44.68.65,1.04.15.33.52.8.71.86.45.26,1.01.6,1.98.65.48.02,1.02-.11,1.45-.35.45-.25.77-.6.97-.9.39-.61.47-1.03.56-1.32.07-.25.14-.49.2-.73.28-.96.57-1.87.63-2.76.39-2.64,1.13-5.16,1.19-7.63l.35-.07c-.11-.3-.18-.57-.36-.67,0-.14,0-.29-.02-.43.23-.38.23-.73-.14-1.07.21-.28.29-.06.46-.2-.04-.49.02-1,.11-1.52.14-.13.27-.34.33-.8l-.12-.03c.47-1.52,1.37-2.95,2.29-3.69-.9-1,.05-2.02-.24-3.1Z"/>
    <path class="cls-1" d="M48.13,216.39c-.04.23-.22.55-.44.38l.18.41.39-.97c-.31.1-.59.35-.96.21l-.2.41c.36-.33.71-.33,1.03-.43Z"/>
    <path class="cls-1" d="M47.3,216.42l.1-.19s-.02-.02-.03-.03c-.02.06-.05.14-.1.21.01,0,.02,0,.04,0Z"/>
    <path class="cls-1" d="M47.37,216.2c.03-.09.06-.16.16-.16-.23-.27-.44-.04-.63.29.1.45.04-.58.47-.13Z"/>
    <path class="cls-1" d="M36.28,230.25c-.24-.39.34-.55.52-.82-.2-.06-1.03.67-.64-.27-.14.37-.21.92-.55.49-.14.62.51.15.68.6Z"/>
    <path class="cls-1" d="M35.82,231.66c.06-.31.53-.51.22-.83-.17.28-.39.63-.22.83Z"/>
    <polygon class="cls-1" points="35.29 230.55 34.71 230.72 34.78 230.91 35.29 230.55"/>
    <path class="cls-1" d="M34.59,231.6c-.15.32-.31.64-.45.97.23.66.45.38.69-.03-.09.11-.2.19-.34.19.02-.38.06-.76.1-1.13Z"/>
    <path class="cls-1" d="M35.4,231.31c-.12-.03-.2.47-.37.88.16-.27.34-.51.52-.52l-.15-.36Z"/>
    <path class="cls-1" d="M33.78,233.49l-.03.16.52.1c-.05-.34-.39-.25-.5-.27Z"/>
    <path class="cls-1" d="M32.65,234.8c-.35.28-.06.93-.02,1.19.39-.37.4-.79.56-1.26-.16.48-.34.11-.54.07Z"/>
    <path class="cls-1" d="M31.86,236.22c.03-.34.05-.69.1-1.03-.61.16-.12.59-.1,1.03Z"/>
    <path class="cls-1" d="M32.33,238.09c.22-.15.12-.5.19-.75l-.5.54c.05.09.21.02.31.21Z"/>
    <path class="cls-1" d="M193.76,41.14c-.15.23.07.33.35.4.31-.17-.44.1-.2-.32-.07,0-.13-.01-.15-.08Z"/>
    <path class="cls-1" d="M193.92,41.23c.05,0,.11,0,.18.03,0-.01,0-.02,0-.03l-.17-.03s0,.02-.01.03Z"/>
    <path class="cls-1" d="M193.89,40.63c.18-.03.46.04.38.24l.26-.22-.81-.07c.14.21.39.36.37.66l.35.06c-.32-.19-.41-.45-.55-.66Z"/>
    <path class="cls-1" d="M196.12,41.93c-.16-.14-.31-.27-.23-.47l.17.06c.05-.12-.09-.25-.21-.36.06.27-.31.49.27.78Z"/>
    <path class="cls-1" d="M195.85,41.16c-.01-.06-.04-.13-.12-.2,0,.06.05.13.12.2Z"/>
    <path class="cls-1" d="M195.06,42.36l.13-.07-.8-.52c.05.49.39.16.68.59Z"/>
    <path class="cls-1" d="M203.94,41.82l.02.09s.06-.03.09-.05c-.04-.02-.07-.03-.12-.04Z"/>
    <path class="cls-1" d="M204.73,42.22l-.53-.43c-.05.04-.1.05-.15.08.37.16.2.42.67.36Z"/>
    <path class="cls-1" d="M203.96,41.91c-.54.21-.67-.43-1.41-.37.49.37,1.02.5,1.45.54l-.04-.17Z"/>
    <path class="cls-1" d="M220.93,53.11c0-.47-.07-.81-.15-1.12-.19-.67-.32-.89-.48-1.24-.32-.65-.77-1.22-1.29-1.62,0,.02.01.05.02.07-.5-.71-1.06-1.35-1.67-1.83-1.28-.77-2.46-1.74-3.48-1.94-.7-.05-1.25-.25-1.77-.44-.02-.01-.04-.03-.06-.04-.05-.06-.1-.11-.16-.16,0-.01-.02-.02-.03-.03h0c-.09-.06-.18-.13-.3-.16.11.06.21.12.29.19l-.05.1c-.14-.05-.28-.08-.42-.12-.58-.45-1.36-.82-1.47-1.24-.42.38.14.5.61.68-.54-.16-1.19-.26-1.77-.45.25,0,.47-.15.66.17.18-.11.16-.25.03-.42-.56-.07-1.48-.61-1.63-.28-.09-.09-.17-.2-.24-.31l-.34.25-.1-.11c.02.06.05.11.08.16-.7-.12-1.42-.4-2-.2-.08.09-.13.16-.18.23-.15-.22.14-.17.24-.34-.48-.11-.84-.17-1.04.12l.77.26c-.06.1-.09.18-.11.25-.3.15-.55.28-.63.21-.59-.32-1.02-.73-1.42-1.15.02-.03.04-.05.06-.07.31.14.77.24.94.3l-.51-.5-.22.17c-.08-.03-.12-.09-.13-.15,0-.01,0-.03,0-.05,0-.04,0-.09.01-.12h-.04s-.02-.06-.04-.1l-.04.1h-.26s-.01.06,0,.09c-.21-.34-.4-.7-.92-.88,0,.01-.02.02-.03.03-.24-.19-.51-.37-.82-.5-.06-.06-.3.05-.53.2-.02,0-.03,0-.05-.01-.17.1-.27.2-.32.3-.08.07-.13.14-.14.19.11.35.46.64.83.91h-.1s.05.03.05.03c.03-.01.04-.02.06-.03.3.22.61.42.82.64.11.32.19.49.32.77.21.44-.41.55-.57.63.22.42.59.73,1.03.98-.55-.07-1.09-.13-1.64-.19l.05-.29c-.47.02-.52-.39-1.04-.35h-.02s0,0,0,0c.09.41.36.45.63.6-2.24-.21-4.5-.32-6.74-.43l.06.58c.15.35.34.68.54,1-.44-.17-.86-.39-1.21-.71-.52.34-1.08.7-1.42,1.26-.17.29-.28.63-.27,1.03,0,.41.13.88.42,1.4.19.32.42.59.67.84.21.49.5.99.85,1.49.85.18,1.86.56,2.75.89l.12.2c.19,0,.44.04.69.09.29.1.56.19.79.25,2.31,1.46,4.57,1.82,6.58,2.17,1.61.33,3.35.23,4.96,0,.17.42.47,1,1.05,1.13,1.57.44,3.71,1.15,5.04.03.47.5,1.06.59,1.39.44.14-.06.21-.11.45-.14.23-.04.53-.07.94-.15.41-.09,1.01-.26,1.6-.72.22-.17.41-.38.59-.61.14-.17.28-.34.38-.54.36-.65.44-1.28.43-1.74ZM202.82,42.48l-.02.05s0,0,0,0c-.02-.03-.04-.06-.06-.09.02.02.05.03.08.05Z"/>
  </g>
</svg>