<?xml version="1.0" encoding="UTF-8"?>
<svg id="Layer_1" data-name="Layer 1" xmlns="http://www.w3.org/2000/svg" viewBox="0 0 300 300">
  <defs>
    <style>
      .cls-1 {
        fill: #d8bcac;
      }

      .cls-1, .cls-2, .cls-3, .cls-4 {
        stroke-width: 0px;
      }

      .cls-2 {
        fill: #d8b061;
      }

      .cls-3 {
        fill: #93a27d;
      }

      .cls-4 {
        fill: #696b4a;
      }
    </style>
  </defs>
  <g>
    <path class="cls-2" d="M147.08,70.06c-1.73-1.3-.26-2.8-.83-4.32-.04-.31-.1-.73-.26-1.31-.16-.56-.47-1.41-1.22-2.17-.72-.76-1.81-1.18-2.62-1.22-.81-.05-1.36.12-1.78.26-.41.15-.73.31-.96.43-.19.1-.38.19-.57.26-.38.14-.76.2-1.14.14-2.37-.11-3.94.97-5.16,2.44-.05.02-.11.04-.16.07-.04.1-.08.2-.12.3-.27.35-.53.72-.77,1.09l-.99,1.34c1.01,1.5,2.22,2.89,2.93,4.26.22-.02.44-.03.66-.05.02,1.23.07,2.46.12,3.68,0,3.09.92,6.26,1.99,9.22-.86.43-2.05,1.16-2.13,2.27,0,.04-.01.08-.02.12-.13-.2-.23-.4-.31-.51-3.02,1.76-2.74,6.26-3.11,9.87-.02.56,1.1.91,1.08,1.47l-.71.79c-.02.56.17,1.41-.07,1.68-.94,1.04-1.16,2.62-.99,4.41.16,1.79.85,3.72,1.49,5.33.48,1.21,1.5,2.15,2.61,2.84,1.14.69,2.42,1.21,4.14,1.59.75.21,1.71.26,2.78-.08,1.07-.33,2.18-1.09,2.98-2.07.79-.96,1.26-2.11,1.5-3.07.25-.98.32-1.81.39-2.53-.19-.4-.39-.74-.59-1.07-.16-.89.61-2.19.41-2.5-.91-3.17-.02-6.17-.52-8.75-.42-3.91-.05-7.74-.73-11.33l.56-.2c-.28-.4-.48-.79-.8-.89-.05-.21-.11-.41-.17-.62.26-.6.15-1.11-.55-1.51.27-.45.48-.15.72-.41-.2-.7-.27-1.45-.24-2.22.21-.23.37-.56.36-1.26l-.23-.02c.4-2.32,1.61-4.6,3.04-5.75ZM137.47,105.87s-.02.02-.03.02c0,0,0,0,0,0,.01-.01.03-.02.05-.03.03-.02.02-.01-.02.01Z"/>
    <path class="cls-2" d="M133.02,83.35v-.03s-.01,0-.01,0c-1.27.37-.77,1.29-1.8,2.01l1.27.08c-.15-.89.74-1.07.54-2.06Z"/>
    <path class="cls-2" d="M128.14,95.64c-.07.48-.13.93-.71.52-.03.89.91.06,1.34.65-.53-.48.4-.87.6-1.31-.33-.02-1.29,1.02-1.22.14Z"/>
    <path class="cls-2" d="M128.56,97.69c-.2.43-.49.98-.14,1.22.02-.45.76-.85.14-1.22Z"/>
    <polygon class="cls-2" points="126.45 98.12 127.2 97.49 126.28 97.88 126.45 98.12"/>
    <path class="cls-2" d="M126.32,99.12l-.51,1.42c.54.87.85.43,1.16-.18-.13.17-.29.3-.53.33l-.12-1.57Z"/>
    <path class="cls-2" d="M127.23,99.83c.2-.41.43-.78.73-.84l-.35-.47c-.21-.01-.2.69-.39,1.31Z"/>
    <path class="cls-2" d="M125.41,101.94v.26s.91.05.91.05c-.18-.52-.72-.3-.91-.31Z"/>
    <path class="cls-2" d="M123.81,104.42c-.52.62.24,1.83.44,2.38.48-.96.32-1.77.46-2.68-.14.91-.53.31-.9.3Z"/>
    <path class="cls-2" d="M123.11,107.67c-.16-.81-.26-1.55-.32-2.26-.95.54.03,1.27.32,2.26Z"/>
    <path class="cls-2" d="M124.88,111.67c.2.2.34-.11.74.28.12-.55-.44-1.35-.56-2-.1.54-.16,1.12-.18,1.72Z"/>
  </g>
  <path class="cls-3" d="M227.33,125.85c-8.45-11.38-23.15-16.92-37.32-16.93-14.17-.02-27.92,4.85-40.68,11.01l-8.84-1.57c-5.76,3.12-13,.79-18.52-2.73-5.52-3.52-10.42-8.24-16.62-10.37-10.55-3.62-22.46,1.32-30.43,9.13-17.98,17.62-19.29,45.7-18.88,70.86.32,19.89,1.27,40.73,11.37,57.86,9.1,15.43,24.53,25.93,39.9,35.14,11.63,6.97,25.86,13.66,38.19,8.02,3.47-1.59,6.55-4.09,10.25-5.04,5.7-1.45,11.57,1.07,17.39,1.97,13.7,2.13,27.6-5.14,36.58-15.72s13.77-24.03,17.37-37.42c5.53-20.56,8.67-41.76,9.34-63.05.45-14.32-.54-29.66-9.08-41.16Z"/>
  <g>
    <path class="cls-1" d="M152.49,105.36c-.02-.13-.02-.26-.04-.39-.44.24-.87.48-1.31.72l1.34-.33Z"/>
    <path class="cls-1" d="M221.29,24.55c-.64-.62-1.66-.55-2.53-.38-6.88,1.34-12.55,6.03-17.9,10.55-6.56,5.55-13.12,11.1-19.68,16.65-8.33,7.06-16.82,14.3-22.35,23.72-5.24,8.94-7.51,19.58-6.38,29.88,30.37-16.59,50.09-47.33,68.42-76.77.71-1.13,1.37-2.73.42-3.66Z"/>
  </g>
  <g>
    <path class="cls-4" d="M128.79,260.43c-.44-1.87-1.41-3.33-2.37-4.46-.98-1.14-2.02-2.04-3.03-2.85l-1.49-1.15-1.35-1.08c-.9-.72-1.8-1.45-2.7-2.17-1.77-1.47-3.4-3.09-5.09-4.61-1.58-1.64-3.17-3.25-4.7-4.9-3.2-3.55-6.13-7.23-8.87-10.93l.04-.96c-.99-1.03-1.91-2.09-2.4-2.3-.45-.63-.9-1.27-1.34-1.9-.28-.66-.57-1.28-.89-1.82-.34-.6-.7-1.14-1.1-1.6-.37-.48-.76-.89-1.19-1.22-.52-1.65.16-.76-.05-1.74-1.39-2.19-2.51-4.76-3.6-7.41-.04-.24-.09-.5-.17-.82-.2-.82-.49-1.96-1.14-3.72h-.22c-.13-.42-.28-.85-.41-1.28l-.34-1.18-.26-1.2c-.16-.8-.32-1.59-.48-2.37-.14-.78-.29-1.55-.43-2.31-.12-.76-.18-1.52-.26-2.26-.14-1.48-.25-2.89-.32-4.2.02-2.66.15-4.92.45-6.6-.54-1.07-.9-2.26-1.14-3.5-.12-.62-.21-1.26-.29-1.91-.07-.65-.06-1.31-.07-1.97,0-1.33,0-2.68-.01-4.03.01-1.35.07-2.69-.06-4.01-.17-3.14-.16-6.5.2-9.69.35-3.18,1.17-6.12,2.42-8.13,1.03-1.86,2.13-3.49,3.23-4.95.53-.75,1.13-1.39,1.68-2.06.6-.6,1.15-1.24,1.78-1.77.58-.59,1.24-1.04,1.85-1.57.64-.48,1.32-.94,2.03-1.39.82-.52,1.67-1.04,2.54-1.56.22-.1.44-.19.66-.29.24-.18.47-.37.7-.56.19-.12.38-.23.57-.35,1.5-.98,2.97-2.06,4.22-3.32,1.29-1.26,2.22-2.79,2.78-4.3.09-.24.15-.49.22-.73.52-.95.89-1.95,1.07-2.96,1.2,1.1,2.39,2.23,3.56,3.44.21-1.19-2.04-1.8-3.31-3.67-.06-.03-.13-.04-.19-.07.24-1.68-.07-3.35-1.17-4.72l12.94,5.63c-8.99-6.62-19.41-13.6-30.38-11.53-5.28,1-9.89,4.08-13.47,8.15-.69.59-1.39,1.2-2.15,1.69l.39.5c-1.08,1.47-2.04,3.03-2.85,4.64-.94,1.86-1.71,3.79-2.37,5.76-1.08,2.22-1.99,4.87-2.69,7.74-.82,3.33-1.37,6.94-1.81,10.54-.45,3.61-.8,7.23-1.1,10.66-.15,2.12.92,3.56.82,5.67-.26.99-.53,1.97-.79,2.96-.06,2.13.14,5.37-.06,6.38-.89,4-.8,9.89-.1,15.89.67,6.01,1.98,12.11,2.81,16.8,1.11,6.29,3.56,12.51,6.13,19.51.9,3.07,2.8,6.74,5.17,10.5,2.4,3.74,5.36,7.47,8.25,10.84.96.73,1.87,1.48,2.85,2.17,2.44,2.3,5.92,6.42,7.04,6.94.65.45,1.29.9,1.93,1.34.66.42,1.32.84,1.97,1.26.66.41,1.28.86,1.95,1.25.66.39,1.32.78,1.98,1.17,1.29.82,2.64,1.49,3.95,2.21l.98.53c.34.18.77.36,1.15.54.78.33,1.57.63,2.36.85,1.58.47,3.18.76,4.83.85,1.65.08,3.36-.03,5.15-.61.44-.14.9-.36,1.34-.55.44-.22.89-.52,1.31-.8.42-.32.82-.71,1.21-1.08.35-.43.68-.88.97-1.34.24-.49.46-.99.65-1.48.12-.49.23-.99.31-1.48.11-.99.08-2.02-.17-2.95Z"/>
    <path class="cls-4" d="M112.14,128.48c1.64,1.61,1.84,2.46,2.45,3.48-1.05-.68-2.56-1.89-1.89-1.96l-1.7-.54c1.47,1.03,2.97,2.15,4.48,3.3-.59-1-1.9-2.32-1.45-2.82-.63-.49-1.27-.98-1.89-1.45Z"/>
    <path class="cls-4" d="M115.08,130.66c-.3-.22-.65-.47-1.02-.79-.02.01-.02.04-.03.05.31.24.62.48.93.73.05,0,.08,0,.12,0Z"/>
    <path class="cls-4" d="M115.87,131.45c1.1.15-.07-.97-1.62-2.22-1.94-.89,2.65,1.57.83,1.44.42.31.72.55.78.79Z"/>
    <path class="cls-4" d="M62.49,160.56c.04-.43.09-.87.14-1.27-.06.51-.11.93-.14,1.27Z"/>
    <path class="cls-4" d="M62.49,160.56c-.19,1.82-.36,3.5-.84,1.9-.24,3.44.88.32,1.19,2.62-.45-1.9.6-3.3.9-4.93-.32-.12-1.55,3.77-1.25.42Z"/>
    <path class="cls-4" d="M62.25,173.14c.02-1.73.83-3.21.24-4.7-.24,1.66-.61,3.73-.24,4.7Z"/>
    <polygon class="cls-4" points="61.16 167.56 60.19 169 60.34 169.92 61.16 167.56"/>
    <path class="cls-4" d="M60.32,179.96c-.08-2.05-.17-4.1-.18-6.15-.19,1.84-.34,3.69-.46,5.54.64,3.36.88,1.71,1.15-.68-.12.66-.27,1.17-.5,1.29Z"/>
    <path class="cls-4" d="M61.04,176.64c.2-1.59.44-3.01.74-3.21-.11-.61-.23-1.22-.33-1.84-.23-.07-.23,2.68-.41,5.05Z"/>
    <path class="cls-4" d="M61.04,176.64c-.07.68-.15,1.37-.22,2.02.1-.58.17-1.27.22-2.02Z"/>
    <path class="cls-4" d="M59.46,184.52l.05.88.92.21c-.29-1.78-.78-1.05-.97-1.09Z"/>
    <path class="cls-4" d="M59.2,191.41c.04,2.62-.48.79-.85.71-.42,1.68.62,4.92.89,6.26.15-1.06.2-2.15.13-3.3-.06-1.15-.16-2.36-.17-3.67Z"/>
    <path class="cls-4" d="M58.18,199.97c-.28-1.79-.49-3.59-.69-5.38-.86,1.16.24,3.13.69,5.38Z"/>
    <path class="cls-4" d="M60.18,208.51c.19.46.38.03.76.94.2-.86-.4-2.64-.54-3.97-.11,1.01-.14,2.01-.21,3.03Z"/>
  </g>
</svg>