<?xml version="1.0" encoding="UTF-8"?>
<svg id="Layer_1" data-name="Layer 1" xmlns="http://www.w3.org/2000/svg" viewBox="0 0 300 300">
  <defs>
    <style>
      .cls-1 {
        fill: #d8bcac;
      }

      .cls-1, .cls-2 {
        stroke-width: 0px;
      }

      .cls-2 {
        fill: #c07c6c;
      }
    </style>
  </defs>
  <g>
    <path class="cls-2" d="M262.02,85.43c-.09-7.26-1.2-14.66-2.55-21.5.81-1.08,1.93-2.88,1.89-5.51.03-1.8.07-3.75.07-5.76v-.75s-.02-.99-.02-.99c-.01-.93-.1-1.83-.17-2.75-.08-.91-.16-1.82-.23-2.73-.04-.93-.27-1.76-.53-2.54-.54-1.56-1.34-2.96-2.47-4.12-1.11-1.17-2.47-1.96-3.83-2.45-.69-.24-1.38-.41-2.09-.52-.69-.13-1.46-.08-2.15-.09-1.4,0-2.66.09-3.73.38-.43-.16-.88-.31-1.34-.45-.4-.12-.8-.23-1.19-.34-.62-.18-1.24-.3-1.83-.38-1.19-.13-2.26-.11-3,.1-1.92.48-3.9.82-5.92,1.05-.14,0-.28-.02-.42-.02-2.49-.08-4.2-.21-8.4.11-3.69.32-7.3.96-10.3,1.85.06,0,.14,0,.23,0-.25.04-.49.07-.74.11-1.79.28-3.61.56-5.44.87-.92.16-1.84.32-2.75.48-.88.18-1.96.29-2.44.62.3.54.6,1.08.89,1.61,2.48,3.95,4.62,7.86,6.7,11.7,1,1.85,1.98,3.65,2.89,5.34.22.4.44.79.66,1.17.2.35.4.69.6,1.03.27.46.55.88.83,1.28,1.68,2.1,2.75,4.15,3.71,6.15.05.36.12.73.21,1.11,0,.02,0,.04,0,.06h.01c.11.42.24.84.44,1.25-.17-.46-.3-.87-.4-1.26l.24-.07c.26.55.51,1.09.77,1.63.63,2.69,1.56,5.79,1.03,6.87,1.38.71.64-1.34-.07-3.16.82,1.87,1.76,4.08,2.39,6.19.03.12.05.23.08.35-.43-.82-1.06-1.32-.84-2.47-.5-.4-.7-.11-.76.61.94,1.93,1.23,5.85,2.07,5.88-.05.43-.13.83-.26,1.19l.91.87-.09.47c.09-.13.17-.28.24-.43.64,2.59.78,5.49,1.66,7.46.06-.29.13-.54.18-.76-.05.28-.11.54-.18.76.25.21.45.37.63.48-.33.77-.47-.41-.91-.64.18,1.91.23,3.36,1.01,3.91,0-1.06.03-2.14.03-3.21.27.15.47.2.63.2.56,1.07.99,1.97.88,2.34-.19,1.67-.57,3.11-.99,4.38-.26.75-.54,1.45-.83,2.12-.06-.06-.12-.13-.18-.19.18-1.33.23-3.26.24-3.97-.29.79-.55,1.55-.85,2.33l.45.8c-.04.33-.14.5-.25.58-.06,0-.13.03-.21.08-.07,0-.13,0-.17-.01l.02.14c-.06.06-.13.13-.21.22l.25.1.13,1.05s.09.05.14.05c-.67.99-1.43,1.94-1.7,4.06.02.02.05.05.07.07-.39,1.07-.74,2.22-1,3.55-.12.28.14,1.23.49,2.15,0,.08-.01.14-.01.22.25.73.49,1.14.71,1.31.16.29.31.48.41.5.79-.56,1.42-2.12,1.99-3.78l-.02.4.1-.24c-.03-.09-.04-.15-.06-.22.46-1.34.88-2.74,1.32-3.74.7-.62,1.05-1.02,1.64-1.72.94-1.12,1.33,1.52,1.52,2.21.9-1.13,1.51-2.83,1.92-4.85.02,2.41,0,4.83-.07,7.26l-.65-.13c.07,2.09-.82,2.44-.71,4.75,0,.03,0,.05,0,.07h0c.9-.54.99-1.74,1.3-2.96-.31,10.13-1.01,20.32-.19,30.4l7.85-1.53c1.14-1.3,2.16-2.66,3.1-4.07-.45,1.78-1.03,3.51-1.87,5.14,1.3.57,2.69,1.22,4.51.96.45-.07.94-.19,1.45-.39.5-.21,1.01-.51,1.56-.9.55-.39,1.13-.88,1.73-1.48.56-.62,1.15-1.35,1.77-2.21.74-1.05,1.32-2.2,1.87-3.38.09-.11.18-.22.27-.33,1-1.39,2.11-2.96,3.03-4.69,0-.62.05-1.28.12-1.98.04-.7.11-1.43.19-2.19.2-1.52.34-3.11.57-4.7.07-.6.13-1.2.2-1.8.14-.24.28-.48.42-.72-.05-.72-.07-1.71-.06-2.72.11-1.2.21-2.31.25-3.25,1.17-5.34,1.6-10.44,1.75-15.29.13-4.86.02-9.42-.12-14.08ZM219.04,68.68c.03.14.06.27.08.4-.03-.13-.06-.27-.08-.4ZM226.76,104.86l.1.04c-.06.11-.12.21-.18.31.03-.1.06-.22.08-.35Z"/>
    <path class="cls-2" d="M225.1,143.73s-.04,0-.06,0v.82s.05.04.08.06c-.02-.25-.04-.55-.02-.89Z"/>
    <path class="cls-2" d="M223.8,144.97c-.13-.86-.1-2.26.37-1.92l-.6-1.21.18,3.96c.4-.78.62-2.08,1.3-2.07v-1.68c-.31,1.62-.83,2.12-1.25,2.91Z"/>
    <path class="cls-2" d="M225.12,144.62c.02.35.03.62-.12.76.57.62.71-.48.74-1.85-.51-1.41.41,2.09-.61,1.09Z"/>
    <path class="cls-2" d="M225.09,135.2l.1-.8c-.27-.22-.52.46-.75,1.02.58-.28,1.12,1.32,1.67-1.39-.29.76-.57,1.52-1.02,1.17Z"/>
    <path class="cls-2" d="M223.99,136.1c.14.03.29-.3.45-.67-.15.07-.3.26-.45.67Z"/>
    <path class="cls-2" d="M226.13,142.21c1.06-.4.24-1.88,1.12-3.37l-.19-.57c-.31,1.3-.65,2.61-.94,3.94Z"/>
    <path class="cls-2" d="M225.02,100.68c-.04-.1-.11-.22-.16-.33-.01.15-.03.29-.03.48l.19-.15Z"/>
    <path class="cls-2" d="M225.23,97.55c-.19.77-.38,1.53-.61,2.31.11.18.17.33.24.5.14-1.52.82-1.05.37-2.81Z"/>
    <path class="cls-2" d="M224.76,106.4c.67-2.1.76-4.3.6-5.98l-.34.27c.74,1.95-.64,2.86-.26,5.71Z"/>
    <path class="cls-2" d="M83.47,28.44c.27-.04.58-.1.95-.11,0-.02-.01-.04-.01-.05l-.87.09s-.04.05-.06.08Z"/>
    <path class="cls-2" d="M84.41,28.28l1.79-.18c-1.75-.14-2.32-.61-3.2-.94.9-.23,2.39-.32,2.06.17l1.23-.71c-1.4.17-2.79.36-4.18.57.86.32,2.26.4,2.3,1.09Z"/>
    <path class="cls-2" d="M82.65,28.4c-.61.64.56.65,2.03.54,1.46-.65-2.19.62-1.21-.5-.37.06-.65.1-.82-.04Z"/>
    <path class="cls-2" d="M94.98,28.33c-.86-.21-1.71-.41-1.37-.9l.88.02c.21-.29-.55-.47-1.18-.65.36.55-1.33,1.25,1.68,1.52Z"/>
    <path class="cls-2" d="M93.3,26.8c-.09-.14-.31-.27-.78-.38-.02.14.35.26.78.38Z"/>
    <path class="cls-2" d="M89.87,29.97l.6-.24c-1.44-.19-2.88-.36-4.33-.52.52,1.04,2.04.02,3.73.76Z"/>
    <path class="cls-2" d="M136.41,32.23l.07.29c.15.05.33.12.5.18-.17-.15-.33-.29-.57-.47Z"/>
    <path class="cls-2" d="M139.92,35.75c-.68-.92-1.37-1.87-2.17-2.76-.29-.09-.52-.19-.77-.29,1.75,1.55.71,1.56,2.94,3.05Z"/>
    <path class="cls-2" d="M136.48,32.52c-1.45-.58-2.25-1.33-3.29-2.12-.51-.4-1.06-.84-1.78-1.23-.71-.4-1.57-.81-2.67-1.12,2.89,1.78,5.72,3.52,7.85,4.98l-.11-.51Z"/>
    <path class="cls-2" d="M176.25,103.93l-.16-.63-.08-.31-.15-.33-.64-1.33s.02.11.03.17l-.78-2.15c-.35-.98-.71-1.96-1.1-2.94l-.51-1.33-.34-.91c-.46-1.21-.93-2.4-1.42-3.57-2.72-5.2-4.75-11.29-7.21-15.02-1.82-2.47-3.09-4.83-4.3-7.1-.09-.41-.21-.83-.36-1.26,0-.02,0-.04-.01-.06h0c-.17-.47-.36-.95-.62-1.42.24.52.43.99.58,1.43l-.24.07c-.33-.61-.67-1.22-1.02-1.82-1.07-3.03-2.69-6.52-2.48-7.83-1.6-.67-.27,1.59.81,3.63-1.21-2.09-2.76-4.49-4.04-6.83-.07-.13-.14-.27-.22-.4.72.89,1.48,1.36,1.61,2.71.63.39.75.04.6-.8-.76-1.09-1.59-2.85-2.41-4.29-.73-1.32-1.43-2.33-1.84-2.24-.15-.52-.26-1.03-.31-1.5l-1.36-.76-.17-.59c0,.19,0,.4.02.61-.73-1.04-1.48-2.12-2.26-3.17-1.37-1.87-2.92-3.6-4.49-4.62.15.24.27.47.37.68-.14-.24-.26-.48-.37-.68-.39-.08-.69-.11-.93-.13-.42-1.02.73.12,1.3.13-1.78-1.96-3.41-3.31-4.51-3.28.61.57,1.22,1.15,1.77,1.75.45.46.86.93,1.27,1.4-.35,0-.55.08-.67.18-1.37-.71-2.52-1.23-2.8-1.63-2.3-2.58-4.26-4.67-6.33-6.52.11-.02.22-.03.33-.04.26.16.53.32.81.49,1.55.95,3.28,2.15,3.93,2.71-.7-.89-1.48-1.75-2.31-2.6l-1.27-.19c-.41-.28-.58-.48-.63-.63.02-.05.02-.12,0-.21.02-.06.06-.12.1-.16-.07-.03-.13-.05-.2-.07-.05-.1-.12-.2-.21-.33l-.24.16c-.49-.19-.99-.37-1.49-.54-.08.02-.11.07-.12.12-.41-.44-.84-.87-1.35-1.3-.88-.73-2.06-1.47-3.95-2.04-.03.02-.08.03-.12.05-1.45-.68-3.04-1.26-4.84-1.67-.38-.15-1.67.02-2.85.34-.1,0-.19-.02-.29-.02-.91.24-1.42.47-1.63.69-.35.16-.58.31-.6.41.62.71,2.23,1.29,4.07,1.93.2.07.4.14.6.21-.18-.02-.36-.04-.53-.06l.3.12c.11-.02.2-.03.29-.04,1.65.58,3.39,1.23,4.57,1.91.65.84,1.08,1.29,1.78,2.09.55.64,0,.82-.76.88-.76.05-1.75,0-2.16.04,1,.96,2.42,1.85,4.03,2.85.22.14.45.29.67.43-2.44-.95-5.01-1.5-7.62-1.8l.2-.64c-2.3-.11-2.67-1.03-5.26-.93-.03,0-.05,0-.08,0h0c.59.9,1.93,1,3.25,1.38-1.87-.15-3.75-.2-5.62-.21-9.22-.06-18.44.68-27.53,2.21l-5.63,12.16c.71,1.75,1.42,3.49,2.13,5.24-1.3-1.54-2.54-3.05-3.65-4.62-2.21,1.86-4.87,3.81-2.75,11.24.33,1.12.75,2.22,1.21,3.32.24,1.71.56,3.57.95,5.54,1.83,2.04,3.73,5.49,5.39,8.79.01.28.02.55.03.83.44.56.98,1.41,1.49,2.3.52,1.09.99,2.1,1.41,2.95,3.21,10.66,7.22,19.85,11.23,29.04.5,1.18,1.01,2.35,1.51,3.54.72,1.63,1.57,3.17,2.63,4.48,1.06,1.3,2.32,2.42,3.8,3.21,1.47.8,3.1,1.24,4.73,1.35,1.64.12,3.32-.07,4.97-.41.8-.17,1.59-.35,2.38-.52l1.41-.39c1.87-.53,3.71-1.07,5.52-1.62,1.25.67,3.31,1.56,6.13,1.21,7.74-.74,18.27-1.38,23.46-5.02,2.66.59,5.48.24,6.91-.4l.81-.35.41-.16.69-.2c.93-.26,1.86-.51,2.79-.74,1.33-.35,2.71-.61,4.03-.94.22-.03.45-.06.66-.1,1.88-.35,3.53-.92,4.89-1.64.68-.37,1.33-.81,1.93-1.41.6-.59,1.11-1.38,1.42-2.18.32-.8.45-1.57.5-2.33.02-.38.03-.76,0-1.15-.06-.42-.17-.86-.26-1.28-.19-.86-.39-1.72-.6-2.56ZM130.14,30.81l-.1.07c-.12-.12-.24-.25-.36-.37.13.09.29.2.45.3Z"/>
  </g>
  <g>
    <path class="cls-1" d="M274.67,252.1c-.18-3.89-.26-7.65-.54-11.2-.13-1.78-.25-3.51-.36-5.18-.16-1.67-.32-3.29-.47-4.84-1.08-10.08-2.39-19.14-3.89-27.75-.18-1-.38-1.98-.56-2.97-.02-.13-.05-.26-.07-.39-.54-3.35-1.26-7.25-2.19-11.29.44,2.14.83,4.04,1.19,5.78l-.15-.22c-.48-2.32-.98-4.62-1.51-6.91-1.05-4.88-2.3-10.19-3.6-15.05-.96-3.6-1.91-6.95-2.68-9.69-.82-2.73-1.43-4.86-1.73-6.03-.95-2.46-.66-1.29.21,1.55.44,1.42,1.02,3.26,1.64,5.27.59,2.03,1.23,4.23,1.85,6.36-.66-2.22-1.35-4.55-2.06-6.94-.77-2.38-1.55-4.82-2.35-7.29-1.72-4.9-3.37-9.92-5.37-14.69-.21-.5-.42-.99-.63-1.49.41.92.79,1.8,1.16,2.64,1.15,2.71,2.11,5.17,3.14,8.6.92,2.32.69,1.43-.24-1.54-1.69-4.81-4.34-11.87-7.52-17.33-1.56-2.74-3.24-5.04-4.53-6.6-1.11-1.32-1.92-2.1-2.14-2.24-.62-.67-1.24-1.3-1.85-1.88-.03-.03-.07-.07-.1-.1-.69-.65-1.36-1.25-2-1.78-.72-.52-1.5-.96-2.24-1.44-.78-.43-1.55-.87-2.35-1.24-.64-.38-1.31-.69-1.97-1.03.49.26,1.03.56,1.61.89-.43-.22-.87-.43-1.31-.63-3.91-1.8-8.12-2.88-12.2-3.61-4.09-.73-8.06-1.13-11.76-1.52-3.71-.38-7.17-.66-10.23-.85-1.09-.02-1.89-.02-2.5-.02-3.48-.39,2.04.02,3.36.02-8.85-.76-15.5-1.08-18.27-.98,4.81.24,9.61.57,14.41.97-.8.01-1.08.05-1.12.09-5.04-.23-9.2-.34-10.82-.47-11.69-.7-20.59-1.01-28.75-1.13.29-.02.6-.04.89-.07.91,0,1.88,0,2.89,0,5.59,0,12.21.14,14.95.24-3.47-.19-6.94-.35-10.41-.45l-3.67.13c-1.44,0-2.19-.03-2.57-.06,0-.02-.1-.04-.35-.06-.02-.02.03-.04.07-.05-.21,0-.42,0-.63.01-.26-.02-.58-.03-.99-.05l-.46.08c-1.58.03-3.16.07-4.73.13-.18.02-.26.03-.24.05-1.63-.03-3.23-.06-5.09-.06-.79,0-1.63,0-2.54,0-.45,0-.92.02-1.41.03-.17,0-.12,0-.15,0h-.05s-.1-.02-.1-.02h-.09s-.06,0-.06-.1c0-.13-.02-.27-.03-.41v-.1s-.01-.05-.01-.05c0-.02,0-.02-.02-.13-.06-.34-.12-.68-.19-1.03-.14-.7-.25-1.44-.42-2.2-.03-.08-.06-.18-.09-.28-1.01-4.87-2.71-9.99-5.21-15.49-.49-1.21-2.47-4.99-4.55-8.47-.15-.27-.28-.52-.44-.8-1.65-2.72-2.61-4.2-3.03-4.77-.66-1.01-1.11-1.66-1.17-1.71.97,2.06,3.92,7.14,6.76,13.11.38.78.76,1.58,1.12,2.39-.06-.12-.12-.24-.19-.38.08.17.17.34.25.52,2.38,5.3,4.33,11.06,5.18,15.35.26,1.37.35,2.53.52,3.7l.05.43v.29c.02.2.03.41.05.62.01.23.03.46.04.7,0,.13.02.26.02.39.04.09.2.04.3.06.75.03.9.09.57.15-.16.03-.44.07-.82.11-.09,0-.19.02-.3.03-.05-.06-.05-.19-.07-.29-.04-.22-.08-.45-.13-.7-.04-.25-.09-.51-.14-.79-.05-.27-.09-.53-.18-.92-.15-.72-.31-1.45-.46-2.14-.32-1.38-.68-2.61-.87-3.33.19,1.06.47,2.22.67,3.49.1.63.21,1.29.31,1.97.13.7.15,1.28.24,1.98.04.34.08.69.12,1.05.03.07-.02.22.07.23h.26s.53-.01.53-.01c.73-.02,1.49-.03,2.26-.05,1.63-.03,3.35-.07,5.13-.1,1.42-.03,2.9-.04,4.41-.06-4.28.1-8.55.24-12.83.47-.72-6.38-2.58-12.45-5.09-18.33l.37.37c-1.76-4.08-2.92-6.44-4.16-8.9-1.23-2.46-2.59-4.99-5.14-9.21-.05-.09-.1-.17-.16-.27,0,0,.01.03.01.03.97,2.11,3.43,6.3,5.68,10.8-10.71-20.7-27.47-39.63-28.3-62.76-4.98,4.64-8.42,10.92-9.64,17.63-4.04-3.46-7.15-7.98-8.94-12.99-4.63,6.07-7.09,13.76-6.82,21.39l-4.72,2.91c-5.46,4.24-10.6,8.88-15.39,13.85,1.99-2.16,4-4.28,6.09-6.3,2.9-2.77,5.9-5.42,9.01-7.94-1.6.77-3.22,1.4-7.26,4.39-1.99,1.53-4.62,3.61-7.96,6.81-3.33,3.19-7.45,7.43-12.15,13.39-2.7,3.43-5.25,7.04-7.66,10.82-.42.63-.84,1.27-1.26,1.92-1.65,2.62-3.35,5.38-4.95,8.33-.4.74-.81,1.49-1.22,2.25-.42.82-.82,1.65-1.17,2.5-.72,1.7-1.33,3.48-1.8,5.32-.48,2.23-.86,4.74-.88,7.5,0,2.75.28,5.82,1.63,8.93.67,1.54,1.68,3.08,3.07,4.34,1.37,1.28,3.1,2.2,4.88,2.67,1.76.49,3.7.61,5.53.32,1.83-.31,3.51-.96,5.02-1.74,2.28-1.2,4.23-2.64,6.07-4.04.84-.59,1.66-1.19,2.48-1.76,1.13-.88,2.51-1.94,4.06-2.88.77-.47,1.59-.91,2.43-1.26.42-.18.84-.33,1.26-.46,0,0,.01,0,.02,0l.43-.12h.03c.08-.03.12-.04.14-.05l.08-.02c.11-.02.21-.05.27-.05.07-.01.15-.02.22-.02h.11s.03.07.04.11c.06.16.11.33.16.48.14.53.27,1.06.4,1.57.15.56.28,1.12.37,1.68.09.5.18.99.27,1.47.02.12.04.24.05.35.05.46.11.92.16,1.37.07.67.11,1.35.14,2.03.2,4.39-.36,8.78-1.34,13.06-1.17,4.94-2.91,9.73-4.89,14.39-3.99,9.34-8.88,18.2-13.19,27.34-2.16,4.56-4.18,9.21-5.87,13.99-1.66,4.81-2.91,9.71-3.88,14.64-.9,4.94-1.47,9.9-1.82,14.86-.28,4.96-.35,9.91-.23,14.85.27,9.7,1.24,19.4,2.48,28.98l.52,3.93.42,3.18.21,1.58.03.2v.1s.02.03.02.05h.05s.39-.11.39-.11l.78-.19c2.99-.75,5.98-1.5,8.96-2.25,5.16-1.31,10.31-2.61,15.42-3.9l.13-3.34.11-2.46c.06-1.39.18-2.77.27-4.14.23-2.75.53-5.48.91-8.19.77-5.4,1.85-10.7,3.3-15.81.76-2.05,1.76-4.79,3.25-8.18,1.5-3.38,3.46-7.43,6.28-11.95,2.73-4.3,6.19-8.53,10.34-12.15-.32,1.22-.61,2.45-.88,3.68-.4,1.38-.78,2.94-1.1,4.63-.76,3.93-1.25,8.45-1.52,12.47-.07,1.24.21,2.08.17,3.32-.09.58-.18,1.16-.27,1.74-.04,1.25-.01,3.16-.08,3.74-.65,4.68,0,13.63-.02,19.11,0,3.66.2,7.52,1.09,11.85.34,1.83,1.15,4.22,2.71,6.44.78,1.12,1.8,2.18,2.93,3.03,1.14.84,2.39,1.5,3.67,1.99.7.2,1.41.32,2.13.42,1.02.15,2.36.33,3.56.23.59-.06,1.15-.13,1.6-.26.44-.13.78-.24.95-.32.44-.25.91-.44,1.32-.74l.71-.51c.23-.18.43-.4.64-.6l.63-.6c.03-.27-.01-.58-.02-.86-.03-.53-.06-1.06-.1-1.59-.09-1.69-.23-3.36-.25-4.98-.01-1.63-.02-3.21-.04-4.75-.01-1.53.07-3.01.06-4.43.12-8.66,1.39-17.09,2.81-24.92l.24-.4c.07-.76.17-1.5.17-1.83.1-.53.19-1.05.29-1.57.38-1.24.6-2.31.6-3.18.32-.97.22-.31.43-.86.35-1.51.81-3.13,1.3-4.79.21-.47.47-1.17.92-2.61l-.05-.06c.42-1.18.87-2.35,1.3-3.48.66-1.78,1.48-3.4,2.15-4.83.34-.71.67-1.37.98-1.95.33-.58.63-1.08.91-1.51.31-1.37.9-2.82,1.58-4.29.72-1.45,1.5-2.92,2.12-4.4.71-1.53,1.49-3.19,2.29-4.78,5.57-.32,11.04-.34,16.14-.39,7.35-.02,13.99.15,19.46.29,8.86.82,18.6,1.97,24.67,2.72,1.89,3.49,3.63,7.05,5.23,10.68.19.55.38,1.13.49,1.67l.24.02c.79,1.86,1.54,3.74,2.25,5.63.41,1.38.92,2.94,1.39,4.63,1.11,3.56,2.26,7.62,3.11,11.27.26,1.13.76,1.79,1.02,2.93.05.55.11,1.09.16,1.64.22,1.14.6,2.88.64,3.43.04,1.1.27,2.41.41,3.88.16,1.46.38,3.05.61,4.67.21,1.62.34,3.26.51,4.82.18,1.56.24,3.03.24,4.31.09,3.4.26,6.94.01,10.86-.18,1.5-.27,3.37-.35,5.45-.1,1.41-.21,2.88-.32,4.36l-.16,2.21-.08,1.1-.04.55c0,.08-.03.21,0,.25l.09.09c.6-.38,1.15-.75,1.75-1.11.84-.61,1.64-1.17,2.4-1.68.54-.36,1.15-.63,1.79-.95.16-.08.33-.16.48-.22l.35-.14c.24-.09.47-.19.69-.28.91-.33,1.7-.58,1.97-.7,1.88-.77,3.84-1.29,5.77-1.61.97-.17,1.93-.27,2.88-.34,1.24-.08,2.6-.08,3.86-.08.03-1.36-.04-2.88-.06-4.14-.02-1.03-.08-2.02-.13-2.99-.37-8.13-.77-16.14-1.64-23.56l.13-.46c-.16-.85-.3-1.66-.42-1.82-.06-.42-.11-.84-.17-1.25-.05-1.27-.18-2.33-.48-3.11-.02-.96.11-.35.12-.9-.21-1.44-.41-3-.59-4.6,0-.48-.04-1.18-.21-2.61l-.07-.03c-.5-4.84-.82-9.64-.8-12.16-.92-2.51-1.01-5.82-1.73-8.77-.1-.46-.2-.94-.31-1.41,1.81,1.49,3.48,3.19,5.01,5.03,2.95,3.52,5.45,7.5,7.82,11.58,4.66,8.06,9.02,16.2,13.04,24.12.7,1.44,1.42,2.88,2.1,4.33,2.12,4.46,4.14,8.94,6.08,13.42.97,2.24,1.91,4.48,2.83,6.71.46,1.12.91,2.23,1.37,3.35.61,1.54,1.23,3.08,1.84,4.61.54,0,1.07.01,1.6.02,6.87.08,13.89.16,20.86.23.09-2.75.17-5.5.26-8.23.09-2.08.07-4.15.1-6.21.08-4.1-.05-8.13-.1-12.02ZM151.7,107.87l-.2.03c-.55,0-1.08-.02-1.59-.03.52,0,1.12,0,1.79,0Z"/>
    <path class="cls-1" d="M71.66,43.81c.03-.35.07-.71.12-1.1-.04.27-.09.54-.12.82,0,.11,0,.19,0,.28Z"/>
    <path class="cls-1" d="M71.63,46.44c.05-1.52.27-4.13.92-6.97.33-1.53.38-1.7.24-1.19-.14.51-.42,1.72-.63,2.96-.4,2.39-.53,4.89-.5,2.57-.14,1.51-.15,2.63-.21,3.2.1,1.41.13.96.18-.57Z"/>
    <path class="cls-1" d="M71.93,41.74c-.05.33-.1.66-.14.97.04-.32.09-.65.14-.97Z"/>
    <path class="cls-1" d="M72.23,40.09c-.11.55-.21,1.1-.3,1.65.08-.53.18-1.07.3-1.65Z"/>
    <path class="cls-1" d="M71.54,42.75c.28-1.74.64-2.98.69-2.67,0,0,0,0,0,0,.48-2.32,1.17-4.6,2.08-6.78-1.33,3.14-1.9,5.26-2.31,6.96-.39,1.7-.65,2.97-.82,4.59.09-1.84.46-4.22.89-5.91.42-1.69.82-2.7.65-1.94.44-1.69.99-3.35,1.68-4.96-2.33,5.09-3.47,10.71-3.3,16.33,0-1.63.15-3.88.45-5.62Z"/>
    <path class="cls-1" d="M88.73,35.02c.04-.08.1-.2.2-.45.1-.25.22-.55.36-.89.24-.63.55-1.34.92-2.13-.36.75-.7,1.5-.98,2.2-.07.16-.13.32-.2.48-.02.05-.04.1-.07.14-.04.08-.08.16-.11.23-.11.21-.17.21-.18,0l.13-.35.51-1.31c.09-.29.02-.21-.13.12-.07.17-.17.39-.29.66-.05.12-.11.25-.17.39l-.05.1c-.09.17-.14.27-.19.33.06.03.1.18.11.39.02.12.04.23.12.08Z"/>
    <path class="cls-1" d="M88.4,34.66s.01,0,.02-.01c.02-.02.04-.05.07-.1-.03-.01-.06,0-.09.03,0,0-.02.01-.06-.06,0,.02.01.05.03.08,0,.02.02.03.03.06Z"/>
    <path class="cls-1" d="M76.03,30.84c.35-.61.73-1.27,1.12-1.95.41-.65.86-1.3,1.32-1.99.47-.65.96-1.32,1.46-2.01.26-.35.52-.7.78-1.05.13-.16.27-.39.39-.49l.32-.2c.72,1.96,1.5,4.19,2.29,6.04.29.53.58,1.15.87,1.62.19.32.38.63.59.94-.12-.2-.24-.4-.35-.61l-.42-.78c-.36-.74-.73-1.45-1.05-2.28-.65-1.59-1.3-3.4-1.91-5.06l-.23.15-.12.08s-.09.12-.14.18l-.57.76-1.13,1.52c-.75.99-1.48,2.06-2.2,3.17l-1.03,1.77-.63,1.21c-.38.78-.75,1.57-1.08,2.37.33-.5.87-1.75,1.73-3.39Z"/>
    <path class="cls-1" d="M130.57,86.56c.15.29.28.55.4.79-.28-.59-.56-1.18-.85-1.76l.45.97Z"/>
    <path class="cls-1" d="M170.29,107.39l.66.08c.47,0,1.04,0,1.55,0-.67-.02-1.33-.04-2.21-.07Z"/>
    <path class="cls-1" d="M174.88,107.47c-.86,0-1.59,0-2.38-.01,7,.31,4.57.38,12.91.72-3.51-.29-7.02-.51-10.53-.71Z"/>
    <path class="cls-1" d="M172.1,107.6l-1.15-.14c-9.14,0-13.08-.48-26.12-.03,9.51-.11,19.43-.05,27.27.16Z"/>
    <path class="cls-1" d="M80.87,224.53c-.1-.07-.64,2.72-.32-.47-.13,1.23-.21,3-.36,1.86-.12,2.01.26.17.32,1.51-.1-1.1.22-1.93.35-2.9Z"/>
    <path class="cls-1" d="M80.24,232.13c.02-1,.28-1.87.12-2.74-.1.97-.22,2.17-.12,2.74Z"/>
    <polygon class="cls-1" points="79.66 229.73 79.7 230.27 79.97 228.89 79.66 229.73"/>
    <path class="cls-1" d="M79.6,232.51l-.19,3.18c.16,1.94.25,1,.35-.38-.04.38-.09.67-.16.73,0-1.18-.01-2.36,0-3.54Z"/>
    <path class="cls-1" d="M79.84,234.15c.07-.92.16-1.74.25-1.86l-.08-1.07c-.06-.04-.1,1.55-.17,2.92Z"/>
    <path class="cls-1" d="M79.84,234.15c-.03.39-.06.79-.09,1.16.04-.33.07-.73.09-1.16Z"/>
    <path class="cls-1" d="M79.28,238.64v.5s.28.15.28.15c-.06-1.03-.22-.62-.28-.65Z"/>
    <path class="cls-1" d="M78.84,242.88c-.15.92.08,2.77.13,3.53.17-1.15.11-2.41.14-3.89-.03,1.47-.16.42-.27.35Z"/>
    <path class="cls-1" d="M78.6,247.21l-.07-3c-.29.59,0,1.74.07,3Z"/>
    <path class="cls-1" d="M78.88,252.02c.04.27.11.06.18.59.09-.44,0-1.47.01-2.2l-.2,1.61Z"/>
    <path class="cls-1" d="M192.58,228.8c.18.81.27,1.43-.04.74.41,1.8.3.07.7,1.24-.39-.95-.29-1.78-.45-2.66-.1-.02.09,1.79-.22.68Z"/>
    <path class="cls-1" d="M192.58,228.8c-.07-.32-.16-.68-.24-.99.1.47.18.78.24.99Z"/>
    <path class="cls-1" d="M193.6,232.56c.14.89.33,1.98.51,2.47-.15-.91-.16-1.74-.51-2.47Z"/>
    <polygon class="cls-1" points="193 233.04 193.17 233.5 193.1 232.22 193 233.04"/>
    <path class="cls-1" d="M194.23,238.01c.03.35.03.62-.03.69l-.64-3.18.39,2.89c.49,1.71.42.86.28-.4Z"/>
    <path class="cls-1" d="M194,235.22c-.1-.31-.18-.63-.29-.94-.05-.02.21,1.41.4,2.66-.1-.84-.17-1.6-.1-1.72Z"/>
    <path class="cls-1" d="M194.23,238.01c-.02-.31-.07-.67-.12-1.07.04.36.08.72.12,1.07Z"/>
    <path class="cls-1" d="M194.38,241.54l.29.09c-.18-.93-.29-.53-.35-.55l.06.46Z"/>
    <path class="cls-1" d="M194.36,244.99c-.03.84.37,2.5.44,3.2.11-1.06-.08-2.21-.22-3.55.13,1.34-.11.39-.23.35Z"/>
    <path class="cls-1" d="M194.49,248.94c-.1-.91-.14-1.82-.29-2.72-.21.56.15,1.57.29,2.72Z"/>
    <path class="cls-1" d="M195.03,253.31c.04.24.11.05.19.53.1-.41-.02-1.34-.07-2.02-.04.5-.06.99-.12,1.48Z"/>
  </g>
</svg>